<?xml version="1.0" encoding="UTF-8" standalone="no"?>
<!DOCTYPE svg PUBLIC "-//W3C//DTD SVG 1.1//EN"
 "http://www.w3.org/Graphics/SVG/1.1/DTD/svg11.dtd">
<!-- Generated by graphviz version 13.1.2 (0)
 -->
<!-- Title: SpokenGrammarGap Pages: 1 -->
<svg width="540pt" height="839pt"
 viewBox="0.00 0.00 540.00 839.00" xmlns="http://www.w3.org/2000/svg" xmlns:xlink="http://www.w3.org/1999/xlink">
<g id="graph0" class="graph" transform="scale(1 1) rotate(0) translate(4 835.25)">
<title>SpokenGrammarGap</title>
<polygon fill="white" stroke="none" points="-4,4 -4,-835.25 536,-835.25 536,4 -4,4"/>
<text xml:space="preserve" text-anchor="middle" x="266" y="-813.95" font-family="Times,serif" font-size="14.00">Comparison of School&#45;taught English and Spoken Grammar</text>
<g id="clust1" class="cluster">
<title>cluster_school</title>
<polygon fill="#ffe7cd" stroke="#ffe7cd" points="8,-305.63 8,-733.88 226,-733.88 226,-305.63 8,-305.63"/>
<text xml:space="preserve" text-anchor="middle" x="117" y="-716.58" font-family="Times,serif" font-size="14.00">School&#45;taught English</text>
<text xml:space="preserve" text-anchor="middle" x="117" y="-701.58" font-family="Times,serif" font-size="14.00">(Instructional Focus)</text>
</g>
<g id="clust2" class="cluster">
<title>cluster_spoken</title>
<polygon fill="#cde7ff" stroke="#cde7ff" points="299,-76.38 299,-468.63 524,-468.63 524,-76.38 299,-76.38"/>
<text xml:space="preserve" text-anchor="middle" x="411.5" y="-451.33" font-family="Times,serif" font-size="14.00">Spoken Grammar</text>
<text xml:space="preserve" text-anchor="middle" x="411.5" y="-436.33" font-family="Times,serif" font-size="14.00">(Natural Conversation Patterns)</text>
</g>
<!-- S1 -->
<g id="node1" class="node">
<title>S1</title>
<polygon fill="#ffffff" stroke="black" points="218,-687.88 130,-687.88 130,-651.88 218,-651.88 218,-687.88"/>
<text xml:space="preserve" text-anchor="middle" x="174" y="-671.23" font-family="Times,serif" font-size="12.00">文法的完全性</text>
<text xml:space="preserve" text-anchor="middle" x="174" y="-658.48" font-family="Times,serif" font-size="12.00">(full forms)</text>
</g>
<!-- S2 -->
<g id="node2" class="node">
<title>S2</title>
<polygon fill="#ffffff" stroke="black" points="218,-614.88 16,-614.88 16,-578.88 218,-578.88 218,-614.88"/>
<text xml:space="preserve" text-anchor="middle" x="117" y="-598.23" font-family="Times,serif" font-size="12.00">精密な構文</text>
<text xml:space="preserve" text-anchor="middle" x="117" y="-585.48" font-family="Times,serif" font-size="12.00">(tense/aspect/relative clauses)</text>
</g>
<!-- S1&#45;&gt;S2 -->
<g id="edge1" class="edge">
<title>S1&#45;&gt;S2</title>
<path fill="none" stroke="black" d="M160.2,-651.69C153.48,-643.32 145.26,-633.07 137.8,-623.78"/>
<polygon fill="black" stroke="black" points="140.61,-621.69 131.62,-616.09 135.15,-626.07 140.61,-621.69"/>
</g>
<!-- P1 -->
<g id="node6" class="node">
<title>P1</title>
<polygon fill="#ffffff" stroke="black" points="516,-422.63 326,-422.63 326,-386.63 516,-386.63 516,-422.63"/>
<text xml:space="preserve" text-anchor="middle" x="421" y="-405.98" font-family="Times,serif" font-size="12.00">省略・短縮</text>
<text xml:space="preserve" text-anchor="middle" x="421" y="-393.23" font-family="Times,serif" font-size="12.00">(reduced forms: gonna, wanna)</text>
</g>
<!-- S1&#45;&gt;P1 -->
<g id="edge10" class="edge">
<title>S1&#45;&gt;P1</title>
<path fill="none" stroke="black" stroke-dasharray="5,2" d="M191.46,-651.62C201.92,-641.15 215.41,-627.42 227,-614.88 253.08,-586.65 257.87,-578.04 283.75,-549.63 322.1,-507.51 368.01,-459.89 395.81,-431.34"/>
<polygon fill="black" stroke="black" points="398.3,-433.8 402.78,-424.2 393.29,-428.91 398.3,-433.8"/>
<text xml:space="preserve" text-anchor="middle" x="338.88" y="-550.43" font-family="Times,serif" font-size="11.00">full vs reduced forms</text>
</g>
<!-- S3 -->
<g id="node3" class="node">
<title>S3</title>
<polygon fill="#ffffff" stroke="black" points="209,-531.63 25,-531.63 25,-495.63 209,-495.63 209,-531.63"/>
<text xml:space="preserve" text-anchor="middle" x="117" y="-514.98" font-family="Times,serif" font-size="12.00">目的語の明示</text>
<text xml:space="preserve" text-anchor="middle" x="117" y="-502.23" font-family="Times,serif" font-size="12.00">(explicit objects: it, them)</text>
</g>
<!-- S2&#45;&gt;S3 -->
<g id="edge2" class="edge">
<title>S2&#45;&gt;S3</title>
<path fill="none" stroke="black" d="M117,-578.65C117,-568.37 117,-555.08 117,-543.26"/>
<polygon fill="black" stroke="black" points="120.5,-543.63 117,-533.63 113.5,-543.63 120.5,-543.63"/>
</g>
<!-- S4 -->
<g id="node4" class="node">
<title>S4</title>
<polygon fill="#ffffff" stroke="black" points="146,-422.63 16,-422.63 16,-386.63 146,-386.63 146,-422.63"/>
<text xml:space="preserve" text-anchor="middle" x="81" y="-405.98" font-family="Times,serif" font-size="12.00">正確さの重視</text>
<text xml:space="preserve" text-anchor="middle" x="81" y="-393.23" font-family="Times,serif" font-size="12.00">(accuracy&#45;oriented)</text>
</g>
<!-- S3&#45;&gt;S4 -->
<g id="edge3" class="edge">
<title>S3&#45;&gt;S4</title>
<path fill="none" stroke="black" d="M111.22,-495.43C105.6,-478.74 96.98,-453.12 90.38,-433.51"/>
<polygon fill="black" stroke="black" points="93.76,-432.57 87.25,-424.21 87.12,-434.8 93.76,-432.57"/>
</g>
<!-- P2 -->
<g id="node7" class="node">
<title>P2</title>
<polygon fill="#ffffff" stroke="black" points="461,-349.63 325,-349.63 325,-313.63 461,-313.63 461,-349.63"/>
<text xml:space="preserve" text-anchor="middle" x="393" y="-332.98" font-family="Times,serif" font-size="12.00">目的語の可変性</text>
<text xml:space="preserve" text-anchor="middle" x="393" y="-320.23" font-family="Times,serif" font-size="12.00">(object optionality)</text>
</g>
<!-- S3&#45;&gt;P2 -->
<g id="edge9" class="edge">
<title>S3&#45;&gt;P2</title>
<path fill="none" stroke="black" stroke-dasharray="5,2" d="M134.2,-495.18C141.22,-487.46 149.07,-478.02 155,-468.63 176.24,-434.97 160.79,-412.55 191,-386.63 224.87,-357.56 272.8,-343.96 313.47,-337.67"/>
<polygon fill="black" stroke="black" points="313.81,-341.16 323.23,-336.3 312.84,-334.23 313.81,-341.16"/>
<text xml:space="preserve" text-anchor="middle" x="254" y="-405.43" font-family="Times,serif" font-size="11.00">object optionality</text>
<text xml:space="preserve" text-anchor="middle" x="254" y="-394.18" font-family="Times,serif" font-size="11.00">(varies in actual usage)</text>
</g>
<!-- S5 -->
<g id="node5" class="node">
<title>S5</title>
<polygon fill="#ffffff" stroke="black" points="218,-349.63 70,-349.63 70,-313.63 218,-313.63 218,-349.63"/>
<text xml:space="preserve" text-anchor="middle" x="144" y="-332.98" font-family="Times,serif" font-size="12.00">書き言葉中心</text>
<text xml:space="preserve" text-anchor="middle" x="144" y="-320.23" font-family="Times,serif" font-size="12.00">(written&#45;style models)</text>
</g>
<!-- S4&#45;&gt;S5 -->
<g id="edge4" class="edge">
<title>S4&#45;&gt;S5</title>
<path fill="none" stroke="black" d="M96.25,-386.44C103.76,-377.98 112.96,-367.61 121.27,-358.24"/>
<polygon fill="black" stroke="black" points="123.87,-360.59 127.89,-350.79 118.63,-355.94 123.87,-360.59"/>
</g>
<!-- P4 -->
<g id="node9" class="node">
<title>P4</title>
<polygon fill="#ffffff" stroke="black" points="455,-193.38 307,-193.38 307,-157.38 455,-157.38 455,-193.38"/>
<text xml:space="preserve" text-anchor="middle" x="381" y="-176.73" font-family="Times,serif" font-size="12.00">即時性・対話性</text>
<text xml:space="preserve" text-anchor="middle" x="381" y="-163.98" font-family="Times,serif" font-size="12.00">(turn&#45;taking, prosody)</text>
</g>
<!-- S4&#45;&gt;P4 -->
<g id="edge11" class="edge">
<title>S4&#45;&gt;P4</title>
<path fill="none" stroke="black" stroke-dasharray="5,2" d="M70.88,-386.45C57.67,-361.56 38.7,-315.08 60.75,-284.38 113.73,-210.6 219.74,-186.55 295.27,-179.08"/>
<polygon fill="black" stroke="black" points="295.5,-182.57 305.14,-178.19 294.87,-175.6 295.5,-182.57"/>
<text xml:space="preserve" text-anchor="middle" x="115.88" y="-285.18" font-family="Times,serif" font-size="11.00">accuracy vs immediacy</text>
</g>
<!-- P3 -->
<g id="node8" class="node">
<title>P3</title>
<polygon fill="#ffffff" stroke="black" points="479,-266.38 307,-266.38 307,-230.38 479,-230.38 479,-266.38"/>
<text xml:space="preserve" text-anchor="middle" x="393" y="-249.73" font-family="Times,serif" font-size="12.00">chunkベース</text>
<text xml:space="preserve" text-anchor="middle" x="393" y="-236.98" font-family="Times,serif" font-size="12.00">(fixed expressions/chunks)</text>
</g>
<!-- S5&#45;&gt;P3 -->
<g id="edge12" class="edge">
<title>S5&#45;&gt;P3</title>
<path fill="none" stroke="black" stroke-dasharray="5,2" d="M190.83,-313.16C215.34,-304.21 245.91,-293.33 273.5,-284.38 288.39,-279.54 304.42,-274.64 319.75,-270.1"/>
<polygon fill="black" stroke="black" points="320.71,-273.47 329.31,-267.29 318.73,-266.75 320.71,-273.47"/>
<text xml:space="preserve" text-anchor="middle" x="331.25" y="-285.18" font-family="Times,serif" font-size="11.00">written vs chunk&#45;based</text>
</g>
<!-- End -->
<g id="node12" class="node">
<title>End</title>
<ellipse fill="#e8e8e8" stroke="black" cx="197" cy="-23.69" rx="96.17" ry="23.69"/>
<text xml:space="preserve" text-anchor="middle" x="197" y="-25.04" font-family="Times,serif" font-size="12.00">学習者の発話</text>
<text xml:space="preserve" text-anchor="middle" x="197" y="-12.29" font-family="Times,serif" font-size="12.00">(learner production)</text>
</g>
<!-- S5&#45;&gt;End -->
<g id="edge15" class="edge">
<title>S5&#45;&gt;End</title>
<path fill="none" stroke="black" d="M159.35,-313.31C163.56,-307.92 167.84,-301.77 171,-295.63 180.83,-276.53 185,-270.85 185,-249.38 185,-249.38 185,-249.38 185,-101.38 185,-87.31 187,-71.96 189.36,-58.71"/>
<polygon fill="black" stroke="black" points="192.74,-59.67 191.2,-49.18 185.87,-58.34 192.74,-59.67"/>
</g>
<!-- P1&#45;&gt;P2 -->
<g id="edge5" class="edge">
<title>P1&#45;&gt;P2</title>
<path fill="none" stroke="black" d="M414.22,-386.44C411.13,-378.59 407.38,-369.1 403.91,-360.28"/>
<polygon fill="black" stroke="black" points="407.2,-359.08 400.27,-351.06 400.68,-361.65 407.2,-359.08"/>
</g>
<!-- P2&#45;&gt;P3 -->
<g id="edge6" class="edge">
<title>P2&#45;&gt;P3</title>
<path fill="none" stroke="black" d="M393,-313.4C393,-303.12 393,-289.83 393,-278.01"/>
<polygon fill="black" stroke="black" points="396.5,-278.38 393,-268.38 389.5,-278.38 396.5,-278.38"/>
</g>
<!-- P3&#45;&gt;P4 -->
<g id="edge7" class="edge">
<title>P3&#45;&gt;P4</title>
<path fill="none" stroke="black" d="M390.1,-230.19C388.8,-222.51 387.24,-213.27 385.77,-204.62"/>
<polygon fill="black" stroke="black" points="389.25,-204.17 384.13,-194.9 382.35,-205.34 389.25,-204.17"/>
</g>
<!-- P5 -->
<g id="node10" class="node">
<title>P5</title>
<polygon fill="#ffffff" stroke="black" points="450,-120.38 308,-120.38 308,-84.38 450,-84.38 450,-120.38"/>
<text xml:space="preserve" text-anchor="middle" x="379" y="-103.73" font-family="Times,serif" font-size="12.00">意味重視の順序</text>
<text xml:space="preserve" text-anchor="middle" x="379" y="-90.98" font-family="Times,serif" font-size="12.00">(meaning&#45;before&#45;form)</text>
</g>
<!-- P4&#45;&gt;P5 -->
<g id="edge8" class="edge">
<title>P4&#45;&gt;P5</title>
<path fill="none" stroke="black" d="M380.52,-157.19C380.3,-149.51 380.04,-140.27 379.8,-131.62"/>
<polygon fill="black" stroke="black" points="383.3,-131.82 379.52,-121.92 376.31,-132.01 383.3,-131.82"/>
</g>
<!-- P5&#45;&gt;End -->
<g id="edge16" class="edge">
<title>P5&#45;&gt;End</title>
<path fill="none" stroke="black" d="M337.7,-83.97C313.26,-73.67 281.91,-60.47 255.02,-49.13"/>
<polygon fill="black" stroke="black" points="256.53,-45.98 245.96,-45.32 253.82,-52.43 256.53,-45.98"/>
</g>
<!-- Start -->
<g id="node11" class="node">
<title>Start</title>
<ellipse fill="#e8e8e8" stroke="black" cx="291" cy="-784.56" rx="104.65" ry="23.69"/>
<text xml:space="preserve" text-anchor="middle" x="291" y="-785.91" font-family="Times,serif" font-size="12.00">英語使用場面</text>
<text xml:space="preserve" text-anchor="middle" x="291" y="-773.16" font-family="Times,serif" font-size="12.00">(language use context)</text>
</g>
<!-- Start&#45;&gt;S1 -->
<g id="edge13" class="edge">
<title>Start&#45;&gt;S1</title>
<path fill="none" stroke="black" d="M267.6,-761.03C248.12,-742.26 220.38,-715.54 200.16,-696.07"/>
<polygon fill="black" stroke="black" points="202.72,-693.68 193.09,-689.26 197.86,-698.72 202.72,-693.68"/>
</g>
<!-- Start&#45;&gt;P1 -->
<g id="edge14" class="edge">
<title>Start&#45;&gt;P1</title>
<path fill="none" stroke="black" d="M335.57,-762.79C368.63,-743.97 408,-712.76 408,-670.88 408,-670.88 408,-670.88 408,-512.63 408,-485.91 412.04,-455.71 415.62,-434.23"/>
<polygon fill="black" stroke="black" points="419.05,-434.91 417.32,-424.46 412.16,-433.71 419.05,-434.91"/>
</g>
</g>
</svg>
