<?xml version="1.0" encoding="UTF-8" standalone="no"?>
<!DOCTYPE svg PUBLIC "-//W3C//DTD SVG 1.1//EN"
 "http://www.w3.org/Graphics/SVG/1.1/DTD/svg11.dtd">
<!-- Generated by graphviz version 14.0.5 (0)
 -->
<!-- Title: Ise96_TwoLayer_Sys12 Pages: 1 -->
<svg width="444pt" height="253pt"
 viewBox="0.00 0.00 444.00 253.00" xmlns="http://www.w3.org/2000/svg" xmlns:xlink="http://www.w3.org/1999/xlink">
<g id="graph0" class="graph" transform="scale(1 1) rotate(0) translate(4 248.65)">
<title>Ise96_TwoLayer_Sys12</title>
<polygon fill="white" stroke="none" points="-4,4 -4,-248.65 439.5,-248.65 439.5,4 -4,4"/>
<text xml:space="preserve" text-anchor="middle" x="217.75" y="-231.15" font-family="Times,serif" font-size="10.00">『伊勢物語』第96段：語りの二層連鎖と処理モードの参照対応</text>
<g id="clust1" class="cluster">
<title>cluster_narrator</title>
<path fill="none" stroke="#7f7f7f" stroke-dasharray="5,2" d="M202,-8C202,-8 308,-8 308,-8 314,-8 320,-14 320,-20 320,-20 320,-83.06 320,-83.06 320,-89.06 314,-95.06 308,-95.06 308,-95.06 202,-95.06 202,-95.06 196,-95.06 190,-89.06 190,-83.06 190,-83.06 190,-20 190,-20 190,-14 196,-8 202,-8"/>
<text xml:space="preserve" text-anchor="middle" x="255" y="-81.56" font-family="Times,serif" font-size="10.00">語り手層（外部）</text>
<text xml:space="preserve" text-anchor="middle" x="255" y="-71.06" font-family="Times,serif" font-size="10.00">[参照：System 1]</text>
</g>
<g id="clust2" class="cluster">
<title>cluster_story</title>
<path fill="none" stroke="#7f7f7f" d="M20,-8.43C20,-8.43 122,-8.43 122,-8.43 128,-8.43 134,-14.43 134,-20.43 134,-20.43 134,-205.29 134,-205.29 134,-211.29 128,-217.29 122,-217.29 122,-217.29 20,-217.29 20,-217.29 14,-217.29 8,-211.29 8,-205.29 8,-205.29 8,-20.43 8,-20.43 8,-14.43 14,-8.43 20,-8.43"/>
<text xml:space="preserve" text-anchor="middle" x="71" y="-203.79" font-family="Times,serif" font-size="10.00">物語内部層</text>
<text xml:space="preserve" text-anchor="middle" x="71" y="-193.29" font-family="Times,serif" font-size="10.00">[参照：System 2]</text>
</g>
<!-- N1 -->
<g id="node1" class="node">
<title>N1</title>
<path fill="none" stroke="black" d="M300.12,-57.21C300.12,-57.21 209.88,-57.21 209.88,-57.21 203.88,-57.21 197.88,-51.21 197.88,-45.21 197.88,-45.21 197.88,-28 197.88,-28 197.88,-22 203.88,-16 209.88,-16 209.88,-16 300.12,-16 300.12,-16 306.12,-16 312.12,-22 312.12,-28 312.12,-28 312.12,-45.21 312.12,-45.21 312.12,-51.21 306.12,-57.21 300.12,-57.21"/>
<text xml:space="preserve" text-anchor="middle" x="255" y="-43.71" font-family="Times,serif" font-size="10.00">心苦し とや 思ひけむ</text>
<text xml:space="preserve" text-anchor="middle" x="255" y="-33.21" font-family="Times,serif" font-size="10.00">(推測的・即時的介入)</text>
<text xml:space="preserve" text-anchor="middle" x="255" y="-21.85" font-family="Times,serif" font-size="10.00">(連鎖の一時停止)</text>
</g>
<!-- S1 -->
<g id="node3" class="node">
<title>S1</title>
<path fill="none" stroke="black" d="M113.88,-56.78C113.88,-56.78 28.12,-56.78 28.12,-56.78 22.12,-56.78 16.13,-50.78 16.13,-44.78 16.13,-44.78 16.13,-28.43 16.13,-28.43 16.13,-22.43 22.13,-16.43 28.13,-16.43 28.13,-16.43 113.88,-16.43 113.88,-16.43 119.88,-16.43 125.88,-22.43 125.88,-28.43 125.88,-28.43 125.88,-44.78 125.88,-44.78 125.88,-50.78 119.88,-56.78 113.88,-56.78"/>
<text xml:space="preserve" text-anchor="middle" x="71" y="-43.28" font-family="Times,serif" font-size="10.00">やうやう あはれ と</text>
<text xml:space="preserve" text-anchor="middle" x="71" y="-32.78" font-family="Times,serif" font-size="10.00">思ひけり</text>
<text xml:space="preserve" text-anchor="middle" x="71" y="-22.28" font-family="Times,serif" font-size="10.00">(感情の成立点／主線)</text>
</g>
<!-- N1&#45;&gt;S1 -->
<g id="edge3" class="edge">
<title>N1&#45;&gt;S1</title>
<path fill="none" stroke="black" d="M197.6,-36.6C178.57,-36.6 157.22,-36.6 137.56,-36.6"/>
<polygon fill="black" stroke="black" points="137.72,-33.1 127.72,-36.6 137.72,-40.1 137.72,-33.1"/>
<text xml:space="preserve" text-anchor="middle" x="161.88" y="-40.8" font-family="Times,serif" font-size="9.00">回収（下降）</text>
</g>
<!-- S0 -->
<g id="node2" class="node">
<title>S0</title>
<path fill="none" stroke="black" d="M110,-179.44C110,-179.44 40,-179.44 40,-179.44 34,-179.44 28,-173.44 28,-167.44 28,-167.44 28,-155.44 28,-155.44 28,-149.44 34,-143.44 40,-143.44 40,-143.44 110,-143.44 110,-143.44 116,-143.44 122,-149.44 122,-155.44 122,-155.44 122,-167.44 122,-167.44 122,-173.44 116,-179.44 110,-179.44"/>
<text xml:space="preserve" text-anchor="middle" x="75" y="-162.87" font-family="Times,serif" font-size="10.00">岩木にしあらねば</text>
<text xml:space="preserve" text-anchor="middle" x="75" y="-152.37" font-family="Times,serif" font-size="10.00">(理由提示)</text>
</g>
<!-- S0&#45;&gt;N1 -->
<g id="edge2" class="edge">
<title>S0&#45;&gt;N1</title>
<path fill="none" stroke="black" d="M100.41,-143.1C130.61,-122.49 181.34,-87.87 216.4,-63.95"/>
<polygon fill="black" stroke="black" points="218.31,-66.88 224.59,-58.35 214.36,-61.1 218.31,-66.88"/>
<text xml:space="preserve" text-anchor="middle" x="181.22" y="-104.26" font-family="Times,serif" font-size="9.00">介入（上昇）</text>
</g>
<!-- S0&#45;&gt;S1 -->
<!-- F1 -->
<g id="node4" class="node">
<title>F1</title>
<polygon fill="none" stroke="black" points="429.5,-186.44 302.5,-186.44 302.5,-136.44 435.5,-136.44 435.5,-180.44 429.5,-186.44"/>
<polyline fill="none" stroke="black" points="429.5,-186.44 429.5,-180.44"/>
<polyline fill="none" stroke="black" points="435.5,-180.44 429.5,-180.44"/>
<text xml:space="preserve" text-anchor="middle" x="369" y="-172.94" font-family="Times,serif" font-size="10.00">形式的指標（言語内）</text>
<text xml:space="preserve" text-anchor="middle" x="369" y="-162.44" font-family="Times,serif" font-size="10.00">・係助詞「や」</text>
<text xml:space="preserve" text-anchor="middle" x="369" y="-151.94" font-family="Times,serif" font-size="10.00">・助動詞差（けむ／けり）</text>
<text xml:space="preserve" text-anchor="middle" x="369" y="-141.44" font-family="Times,serif" font-size="10.00">・同一語幹反復（思ふ）</text>
</g>
<!-- F1&#45;&gt;N1 -->
<g id="edge4" class="edge">
<title>F1&#45;&gt;N1</title>
<path fill="none" stroke="black" stroke-dasharray="1,5" d="M347.62,-135.96C338.57,-125.71 327.86,-113.73 318,-103.06 306.45,-90.58 293.45,-77 282.28,-65.46"/>
<polygon fill="black" stroke="black" points="285.04,-63.28 275.56,-58.55 280.02,-68.16 285.04,-63.28"/>
</g>
<!-- F1&#45;&gt;S1 -->
<g id="edge5" class="edge">
<title>F1&#45;&gt;S1</title>
<path fill="none" stroke="black" stroke-dasharray="1,5" d="M306.87,-135.98C302.18,-134.21 297.52,-132.47 293,-130.81 257.26,-117.73 248.19,-114.83 212,-103.06 200.5,-99.33 197.22,-99.56 186,-95.06 162.6,-85.69 137.47,-73.41 116.69,-62.61"/>
<polygon fill="black" stroke="black" points="118.38,-59.54 107.9,-57.98 115.12,-65.74 118.38,-59.54"/>
</g>
<!-- C1 -->
<g id="node5" class="node">
<title>C1</title>
<polygon fill="none" stroke="black" points="278.38,-192.06 141.62,-192.06 141.62,-130.81 284.38,-130.81 284.38,-186.06 278.38,-192.06"/>
<polyline fill="none" stroke="black" points="278.38,-192.06 278.38,-186.06"/>
<polyline fill="none" stroke="black" points="284.38,-186.06 278.38,-186.06"/>
<text xml:space="preserve" text-anchor="middle" x="213" y="-178.56" font-family="Times,serif" font-size="10.00">注意：</text>
<text xml:space="preserve" text-anchor="middle" x="213" y="-168.06" font-family="Times,serif" font-size="10.00">System 1 / System 2 は</text>
<text xml:space="preserve" text-anchor="middle" x="213" y="-156.81" font-family="Times,serif" font-size="10.00">心理学的処理モデルであり、</text>
<text xml:space="preserve" text-anchor="middle" x="213" y="-146.31" font-family="Times,serif" font-size="10.00">本分析は同一視ではなく</text>
<text xml:space="preserve" text-anchor="middle" x="213" y="-135.81" font-family="Times,serif" font-size="10.00">参照枠として用いる</text>
</g>
<!-- C1&#45;&gt;N1 -->
<g id="edge6" class="edge">
<title>C1&#45;&gt;N1</title>
<path fill="none" stroke="black" stroke-dasharray="1,5" d="M223.27,-130.39C231.05,-107.66 241.5,-77.1 248.24,-57.37"/>
</g>
<!-- C1&#45;&gt;S1 -->
<g id="edge7" class="edge">
<title>C1&#45;&gt;S1</title>
<path fill="none" stroke="black" stroke-dasharray="1,5" d="M142.98,-130.37C134.43,-125.18 126.19,-119.32 119,-112.81 101.66,-97.11 88.08,-73.77 79.85,-57.26"/>
</g>
</g>
</svg>
