<?xml version="1.0" encoding="UTF-8" standalone="no"?>
<!DOCTYPE svg PUBLIC "-//W3C//DTD SVG 1.1//EN"
 "http://www.w3.org/Graphics/SVG/1.1/DTD/svg11.dtd">
<!-- Generated by graphviz version 14.0.5 (0)
 -->
<!-- Title: Ise96_TwoLayer_Sys12 Pages: 1 -->
<svg width="603pt" height="257pt"
 viewBox="0.00 0.00 603.00 257.00" xmlns="http://www.w3.org/2000/svg" xmlns:xlink="http://www.w3.org/1999/xlink">
<g id="graph0" class="graph" transform="scale(1 1) rotate(0) translate(4 252.62)">
<title>Ise96_TwoLayer_Sys12</title>
<polygon fill="white" stroke="none" points="-4,4 -4,-252.62 598.62,-252.62 598.62,4 -4,4"/>
<text xml:space="preserve" text-anchor="middle" x="297.31" y="-235.12" font-family="Times,serif" font-size="10.00">Section 96 of Ise Monogatari: Two&#45;layer narrative chain and reference to processing modes</text>
<g id="clust1" class="cluster">
<title>cluster_narrator</title>
<path fill="none" stroke="#7f7f7f" stroke-dasharray="5,2" d="M283,-8C283,-8 443,-8 443,-8 449,-8 455,-14 455,-20 455,-20 455,-84.25 455,-84.25 455,-90.25 449,-96.25 443,-96.25 443,-96.25 283,-96.25 283,-96.25 277,-96.25 271,-90.25 271,-84.25 271,-84.25 271,-20 271,-20 271,-14 277,-8 283,-8"/>
<text xml:space="preserve" text-anchor="middle" x="363" y="-82.75" font-family="Times,serif" font-size="10.00">Narrator layer (external)</text>
<text xml:space="preserve" text-anchor="middle" x="363" y="-71.5" font-family="Times,serif" font-size="10.00">[reference: System 1]</text>
</g>
<g id="clust2" class="cluster">
<title>cluster_story</title>
<path fill="none" stroke="#7f7f7f" d="M20,-8C20,-8 182,-8 182,-8 188,-8 194,-14 194,-20 194,-20 194,-209.38 194,-209.38 194,-215.38 188,-221.38 182,-221.38 182,-221.38 20,-221.38 20,-221.38 14,-221.38 8,-215.38 8,-209.38 8,-209.38 8,-20 8,-20 8,-14 14,-8 20,-8"/>
<text xml:space="preserve" text-anchor="middle" x="101" y="-207.88" font-family="Times,serif" font-size="10.00">Story&#45;internal layer</text>
<text xml:space="preserve" text-anchor="middle" x="101" y="-196.62" font-family="Times,serif" font-size="10.00">[reference: System 2]</text>
</g>
<!-- N1 -->
<g id="node1" class="node">
<title>N1</title>
<path fill="none" stroke="black" d="M434.75,-57.75C434.75,-57.75 291.25,-57.75 291.25,-57.75 285.25,-57.75 279.25,-51.75 279.25,-45.75 279.25,-45.75 279.25,-28 279.25,-28 279.25,-22 285.25,-16 291.25,-16 291.25,-16 434.75,-16 434.75,-16 440.75,-16 446.75,-22 446.75,-28 446.75,-28 446.75,-45.75 446.75,-45.75 446.75,-51.75 440.75,-57.75 434.75,-57.75"/>
<text xml:space="preserve" text-anchor="middle" x="363" y="-44.25" font-family="Times,serif" font-size="10.00">kokorogurushi to ya omoi&#45;kemu</text>
<text xml:space="preserve" text-anchor="middle" x="363" y="-33" font-family="Times,serif" font-size="10.00">(conjectural, immediate intervention)</text>
<text xml:space="preserve" text-anchor="middle" x="363" y="-21.75" font-family="Times,serif" font-size="10.00">(temporary suspension of the chain)</text>
</g>
<!-- S1 -->
<g id="node3" class="node">
<title>S1</title>
<path fill="none" stroke="black" d="M174.25,-57.75C174.25,-57.75 27.75,-57.75 27.75,-57.75 21.75,-57.75 15.75,-51.75 15.75,-45.75 15.75,-45.75 15.75,-28 15.75,-28 15.75,-22 21.75,-16 27.75,-16 27.75,-16 174.25,-16 174.25,-16 180.25,-16 186.25,-22 186.25,-28 186.25,-28 186.25,-45.75 186.25,-45.75 186.25,-51.75 180.25,-57.75 174.25,-57.75"/>
<text xml:space="preserve" text-anchor="middle" x="101" y="-44.25" font-family="Times,serif" font-size="10.00">yoyo aware to</text>
<text xml:space="preserve" text-anchor="middle" x="101" y="-33" font-family="Times,serif" font-size="10.00">omoi&#45;keri</text>
<text xml:space="preserve" text-anchor="middle" x="101" y="-21.75" font-family="Times,serif" font-size="10.00">(establishment of emotion / main line)</text>
</g>
<!-- N1&#45;&gt;S1 -->
<g id="edge3" class="edge">
<title>N1&#45;&gt;S1</title>
<path fill="none" stroke="black" d="M279.03,-36.88C253.13,-36.88 224.41,-36.88 197.72,-36.88"/>
<polygon fill="black" stroke="black" points="197.94,-33.38 187.94,-36.88 197.94,-40.38 197.94,-33.38"/>
<text xml:space="preserve" text-anchor="middle" x="232.75" y="-41.83" font-family="Times,serif" font-size="9.00">retrieval (downward)</text>
</g>
<!-- S0 -->
<g id="node2" class="node">
<title>S0</title>
<path fill="none" stroke="black" d="M158.62,-182.88C158.62,-182.88 71.38,-182.88 71.38,-182.88 65.38,-182.88 59.38,-176.88 59.38,-170.88 59.38,-170.88 59.38,-158.88 59.38,-158.88 59.38,-152.88 65.38,-146.88 71.38,-146.88 71.38,-146.88 158.62,-146.88 158.62,-146.88 164.62,-146.88 170.62,-152.88 170.62,-158.88 170.62,-158.88 170.62,-170.88 170.62,-170.88 170.62,-176.88 164.62,-182.88 158.62,-182.88"/>
<text xml:space="preserve" text-anchor="middle" x="115" y="-166.62" font-family="Times,serif" font-size="10.00">iwaki ni shi araneba</text>
<text xml:space="preserve" text-anchor="middle" x="115" y="-155.38" font-family="Times,serif" font-size="10.00">(presentation of reason)</text>
</g>
<!-- S0&#45;&gt;N1 -->
<g id="edge2" class="edge">
<title>S0&#45;&gt;N1</title>
<path fill="none" stroke="black" d="M149.22,-146.49C191.65,-124.93 264.3,-88.02 312.97,-63.29"/>
<polygon fill="black" stroke="black" points="314.3,-66.54 321.63,-58.89 311.13,-60.3 314.3,-66.54"/>
<text xml:space="preserve" text-anchor="middle" x="270.19" y="-106.2" font-family="Times,serif" font-size="9.00">intervention (upward)</text>
</g>
<!-- S0&#45;&gt;S1 -->
<!-- F1 -->
<g id="node4" class="node">
<title>F1</title>
<polygon fill="none" stroke="black" points="588.62,-191.38 405.38,-191.38 405.38,-138.38 594.62,-138.38 594.62,-185.38 588.62,-191.38"/>
<polyline fill="none" stroke="black" points="588.62,-191.38 588.62,-185.38"/>
<polyline fill="none" stroke="black" points="594.62,-185.38 588.62,-185.38"/>
<text xml:space="preserve" text-anchor="middle" x="500" y="-177.88" font-family="Times,serif" font-size="10.00">Formal indicators (language&#45;internal)</text>
<text xml:space="preserve" text-anchor="middle" x="500" y="-166.62" font-family="Times,serif" font-size="10.00">&#45; binding particle ya</text>
<text xml:space="preserve" text-anchor="middle" x="500" y="-155.38" font-family="Times,serif" font-size="10.00">&#45; auxiliary contrast (kemu / keri)</text>
<text xml:space="preserve" text-anchor="middle" x="500" y="-144.12" font-family="Times,serif" font-size="10.00">&#45; repetition of the same verbal stem (omou)</text>
</g>
<!-- F1&#45;&gt;N1 -->
<g id="edge4" class="edge">
<title>F1&#45;&gt;N1</title>
<path fill="none" stroke="black" stroke-dasharray="1,5" d="M471.95,-138.07C449.08,-117.04 416.84,-87.39 393.37,-65.8"/>
<polygon fill="black" stroke="black" points="395.99,-63.46 386.26,-59.27 391.25,-68.62 395.99,-63.46"/>
</g>
<!-- F1&#45;&gt;S1 -->
<g id="edge5" class="edge">
<title>F1&#45;&gt;S1</title>
<path fill="none" stroke="black" stroke-dasharray="1,5" d="M426.49,-137.88C392.3,-126.45 350.89,-113.54 313,-104.25 292.85,-99.31 287.08,-101.49 267,-96.25 231.7,-87.04 193.21,-73.72 162.19,-62.13"/>
<polygon fill="black" stroke="black" points="163.55,-58.9 152.96,-58.65 161.08,-65.45 163.55,-58.9"/>
</g>
<!-- C1 -->
<g id="node5" class="node">
<title>C1</title>
<polygon fill="none" stroke="black" points="381.75,-197 202.25,-197 202.25,-132.75 387.75,-132.75 387.75,-191 381.75,-197"/>
<polyline fill="none" stroke="black" points="381.75,-197 381.75,-191"/>
<polyline fill="none" stroke="black" points="387.75,-191 381.75,-191"/>
<text xml:space="preserve" text-anchor="middle" x="295" y="-183.5" font-family="Times,serif" font-size="10.00">Note:</text>
<text xml:space="preserve" text-anchor="middle" x="295" y="-172.25" font-family="Times,serif" font-size="10.00">System 1 / System 2 are</text>
<text xml:space="preserve" text-anchor="middle" x="295" y="-161" font-family="Times,serif" font-size="10.00">psychological processing models.</text>
<text xml:space="preserve" text-anchor="middle" x="295" y="-149.75" font-family="Times,serif" font-size="10.00">They are used here as a frame of reference,</text>
<text xml:space="preserve" text-anchor="middle" x="295" y="-138.5" font-family="Times,serif" font-size="10.00">not as objects of identification.</text>
</g>
<!-- C1&#45;&gt;N1 -->
<g id="edge6" class="edge">
<title>C1&#45;&gt;N1</title>
<path fill="none" stroke="black" stroke-dasharray="1,5" d="M311.98,-132.4C324.57,-109.08 341.35,-77.99 352.17,-57.94"/>
</g>
<!-- C1&#45;&gt;S1 -->
<g id="edge7" class="edge">
<title>C1&#45;&gt;S1</title>
<path fill="none" stroke="black" stroke-dasharray="1,5" d="M204.87,-132.35C194.1,-127.13 183.55,-121.26 174,-114.75 151.04,-99.09 129.77,-75.16 116.18,-58.16"/>
</g>
</g>
</svg>
