<?xml version="1.0" encoding="UTF-8" standalone="no"?>
<!DOCTYPE svg PUBLIC "-//W3C//DTD SVG 1.1//EN"
 "http://www.w3.org/Graphics/SVG/1.1/DTD/svg11.dtd">
<!-- Generated by graphviz version 14.0.5 (0)
 -->
<!-- Title: IG_AG_System Pages: 1 -->
<svg width="454pt" height="525pt"
 viewBox="0.00 0.00 454.00 525.00" xmlns="http://www.w3.org/2000/svg" xmlns:xlink="http://www.w3.org/1999/xlink">
<g id="graph0" class="graph" transform="scale(1 1) rotate(0) translate(4 520.5)">
<title>IG_AG_System</title>
<polygon fill="white" stroke="none" points="-4,4 -4,-520.5 450,-520.5 450,4 -4,4"/>
<g id="clust1" class="cluster">
<title>cluster_sys1</title>
<polygon fill="#fff0cc" stroke="#fff0cc" points="96,-190.5 96,-508.5 263,-508.5 263,-190.5 96,-190.5"/>
<text xml:space="preserve" text-anchor="middle" x="179.5" y="-491.2" font-family="Times,serif" font-size="14.00">System 1（直観・即応）</text>
</g>
<g id="clust2" class="cluster">
<title>cluster_sys2</title>
<polygon fill="#cce0ff" stroke="#cce0ff" points="271,-117.5 271,-413 438,-413 438,-117.5 271,-117.5"/>
<text xml:space="preserve" text-anchor="middle" x="354.5" y="-395.7" font-family="Times,serif" font-size="14.00">System 2（推論・統合）</text>
</g>
<g id="clust3" class="cluster">
<title>cluster_goal</title>
<polygon fill="none" stroke="black" stroke-dasharray="5,2" points="8,-8 8,-83 309,-83 309,-8 8,-8"/>
<text xml:space="preserve" text-anchor="middle" x="158.5" y="-65.7" font-family="Times,serif" font-size="14.00">共通目的：相手を持ち上げる（対人的調和）</text>
</g>
<!-- IG1 -->
<g id="node1" class="node">
<title>IG1</title>
<path fill="none" stroke="black" d="M243.38,-476C243.38,-476 196.62,-476 196.62,-476 190.62,-476 184.62,-470 184.62,-464 184.62,-464 184.62,-452 184.62,-452 184.62,-446 190.62,-440 196.62,-440 196.62,-440 243.38,-440 243.38,-440 249.38,-440 255.38,-446 255.38,-452 255.38,-452 255.38,-464 255.38,-464 255.38,-470 249.38,-476 243.38,-476"/>
<text xml:space="preserve" text-anchor="middle" x="220" y="-454.12" font-family="Times,serif" font-size="10.00">IG: 瞬時反応</text>
</g>
<!-- IG2 -->
<g id="node2" class="node">
<title>IG2</title>
<path fill="none" stroke="black" d="M230.25,-380.5C230.25,-380.5 173.75,-380.5 173.75,-380.5 167.75,-380.5 161.75,-374.5 161.75,-368.5 161.75,-368.5 161.75,-356.5 161.75,-356.5 161.75,-350.5 167.75,-344.5 173.75,-344.5 173.75,-344.5 230.25,-344.5 230.25,-344.5 236.25,-344.5 242.25,-350.5 242.25,-356.5 242.25,-356.5 242.25,-368.5 242.25,-368.5 242.25,-374.5 236.25,-380.5 230.25,-380.5"/>
<text xml:space="preserve" text-anchor="middle" x="202" y="-358.62" font-family="Times,serif" font-size="10.00">IG: 矛盾の許容</text>
</g>
<!-- IG1&#45;&gt;IG2 -->
<g id="edge1" class="edge">
<title>IG1&#45;&gt;IG2</title>
<path fill="none" stroke="black" d="M216.7,-439.85C214.13,-426.49 210.5,-407.65 207.49,-392.03"/>
<polygon fill="black" stroke="black" points="210.96,-391.5 205.63,-382.34 204.08,-392.82 210.96,-391.5"/>
</g>
<!-- AG1 -->
<g id="node5" class="node">
<title>AG1</title>
<path fill="none" stroke="black" d="M342.62,-380.5C342.62,-380.5 291.38,-380.5 291.38,-380.5 285.38,-380.5 279.38,-374.5 279.38,-368.5 279.38,-368.5 279.38,-356.5 279.38,-356.5 279.38,-350.5 285.38,-344.5 291.38,-344.5 291.38,-344.5 342.62,-344.5 342.62,-344.5 348.62,-344.5 354.62,-350.5 354.62,-356.5 354.62,-356.5 354.62,-368.5 354.62,-368.5 354.62,-374.5 348.62,-380.5 342.62,-380.5"/>
<text xml:space="preserve" text-anchor="middle" x="317" y="-358.62" font-family="Times,serif" font-size="10.00">AG: 文脈保持</text>
</g>
<!-- IG1&#45;&gt;AG1 -->
<!-- IG3 -->
<g id="node3" class="node">
<title>IG3</title>
<path fill="none" stroke="black" d="M226,-307.5C226,-307.5 150,-307.5 150,-307.5 144,-307.5 138,-301.5 138,-295.5 138,-295.5 138,-283.5 138,-283.5 138,-277.5 144,-271.5 150,-271.5 150,-271.5 226,-271.5 226,-271.5 232,-271.5 238,-277.5 238,-283.5 238,-283.5 238,-295.5 238,-295.5 238,-301.5 232,-307.5 226,-307.5"/>
<text xml:space="preserve" text-anchor="middle" x="188" y="-285.62" font-family="Times,serif" font-size="10.00">IG: 呼吸・流れ優先</text>
</g>
<!-- IG2&#45;&gt;IG3 -->
<g id="edge2" class="edge">
<title>IG2&#45;&gt;IG3</title>
<path fill="none" stroke="black" d="M198.61,-344.31C197.1,-336.64 195.27,-327.39 193.57,-318.74"/>
<polygon fill="black" stroke="black" points="197.02,-318.15 191.65,-309.01 190.15,-319.5 197.02,-318.15"/>
</g>
<!-- IG4 -->
<g id="node4" class="node">
<title>IG4</title>
<path fill="none" stroke="black" d="M241.38,-234.5C241.38,-234.5 116.62,-234.5 116.62,-234.5 110.62,-234.5 104.62,-228.5 104.62,-222.5 104.62,-222.5 104.62,-210.5 104.62,-210.5 104.62,-204.5 110.62,-198.5 116.62,-198.5 116.62,-198.5 241.38,-198.5 241.38,-198.5 247.38,-198.5 253.38,-204.5 253.38,-210.5 253.38,-210.5 253.38,-222.5 253.38,-222.5 253.38,-228.5 247.38,-234.5 241.38,-234.5"/>
<text xml:space="preserve" text-anchor="middle" x="179" y="-212.62" font-family="Times,serif" font-size="10.00">IG: 温度調整（意味より調和）</text>
</g>
<!-- IG3&#45;&gt;IG4 -->
<g id="edge3" class="edge">
<title>IG3&#45;&gt;IG4</title>
<path fill="none" stroke="black" d="M185.82,-271.31C184.85,-263.64 183.68,-254.39 182.58,-245.74"/>
<polygon fill="black" stroke="black" points="186.08,-245.51 181.35,-236.03 179.13,-246.39 186.08,-245.51"/>
</g>
<!-- goal -->
<g id="node9" class="node">
<title>goal</title>
<path fill="none" stroke="black" d="M193,-52C193,-52 123,-52 123,-52 117,-52 111,-46 111,-40 111,-40 111,-28 111,-28 111,-22 117,-16 123,-16 123,-16 193,-16 193,-16 199,-16 205,-22 205,-28 205,-28 205,-40 205,-40 205,-46 199,-52 193,-52"/>
<text xml:space="preserve" text-anchor="middle" x="158" y="-29.75" font-family="Times,serif" font-size="10.00">対人的調和の実現</text>
</g>
<!-- IG4&#45;&gt;goal -->
<g id="edge8" class="edge">
<title>IG4&#45;&gt;goal</title>
<path fill="none" stroke="black" d="M153.16,-198.13C141.62,-188.79 129.23,-176.17 123,-161.5 108.92,-128.36 125.56,-87.93 140.36,-61.84"/>
<polygon fill="black" stroke="black" points="143.18,-63.94 145.3,-53.56 137.17,-60.35 143.18,-63.94"/>
<text xml:space="preserve" text-anchor="middle" x="195" y="-138.45" font-family="Times,serif" font-size="14.00">IG 経由（System 1 的）</text>
</g>
<!-- AG2 -->
<g id="node6" class="node">
<title>AG2</title>
<path fill="none" stroke="black" d="M361.38,-307.5C361.38,-307.5 290.62,-307.5 290.62,-307.5 284.62,-307.5 278.62,-301.5 278.62,-295.5 278.62,-295.5 278.62,-283.5 278.62,-283.5 278.62,-277.5 284.62,-271.5 290.62,-271.5 290.62,-271.5 361.38,-271.5 361.38,-271.5 367.38,-271.5 373.38,-277.5 373.38,-283.5 373.38,-283.5 373.38,-295.5 373.38,-295.5 373.38,-301.5 367.38,-307.5 361.38,-307.5"/>
<text xml:space="preserve" text-anchor="middle" x="326" y="-285.62" font-family="Times,serif" font-size="10.00">AG: 整合性の確保</text>
</g>
<!-- AG1&#45;&gt;AG2 -->
<g id="edge4" class="edge">
<title>AG1&#45;&gt;AG2</title>
<path fill="none" stroke="black" d="M319.18,-344.31C320.15,-336.64 321.32,-327.39 322.42,-318.74"/>
<polygon fill="black" stroke="black" points="325.87,-319.39 323.65,-309.03 318.92,-318.51 325.87,-319.39"/>
</g>
<!-- AG3 -->
<g id="node7" class="node">
<title>AG3</title>
<path fill="none" stroke="black" d="M366.38,-234.5C366.38,-234.5 295.62,-234.5 295.62,-234.5 289.62,-234.5 283.62,-228.5 283.62,-222.5 283.62,-222.5 283.62,-210.5 283.62,-210.5 283.62,-204.5 289.62,-198.5 295.62,-198.5 295.62,-198.5 366.38,-198.5 366.38,-198.5 372.38,-198.5 378.38,-204.5 378.38,-210.5 378.38,-210.5 378.38,-222.5 378.38,-222.5 378.38,-228.5 372.38,-234.5 366.38,-234.5"/>
<text xml:space="preserve" text-anchor="middle" x="331" y="-212.62" font-family="Times,serif" font-size="10.00">AG: 構造化・説明</text>
</g>
<!-- AG2&#45;&gt;AG3 -->
<g id="edge5" class="edge">
<title>AG2&#45;&gt;AG3</title>
<path fill="none" stroke="black" d="M327.21,-271.31C327.75,-263.64 328.4,-254.39 329.01,-245.74"/>
<polygon fill="black" stroke="black" points="332.48,-246.26 329.69,-236.04 325.5,-245.77 332.48,-246.26"/>
</g>
<!-- AG4 -->
<g id="node8" class="node">
<title>AG4</title>
<path fill="none" stroke="black" d="M382.12,-161.5C382.12,-161.5 291.88,-161.5 291.88,-161.5 285.88,-161.5 279.88,-155.5 279.88,-149.5 279.88,-149.5 279.88,-137.5 279.88,-137.5 279.88,-131.5 285.88,-125.5 291.88,-125.5 291.88,-125.5 382.12,-125.5 382.12,-125.5 388.12,-125.5 394.12,-131.5 394.12,-137.5 394.12,-137.5 394.12,-149.5 394.12,-149.5 394.12,-155.5 388.12,-161.5 382.12,-161.5"/>
<text xml:space="preserve" text-anchor="middle" x="337" y="-139.62" font-family="Times,serif" font-size="10.00">AG: 理解可能性の調整</text>
</g>
<!-- AG3&#45;&gt;AG4 -->
<g id="edge6" class="edge">
<title>AG3&#45;&gt;AG4</title>
<path fill="none" stroke="black" d="M332.45,-198.31C333.1,-190.64 333.88,-181.39 334.61,-172.74"/>
<polygon fill="black" stroke="black" points="338.08,-173.3 335.43,-163.04 331.1,-172.71 338.08,-173.3"/>
</g>
<!-- AG4&#45;&gt;goal -->
<g id="edge9" class="edge">
<title>AG4&#45;&gt;goal</title>
<path fill="none" stroke="black" d="M308.24,-125.23C277.93,-107.02 230.02,-78.25 196.47,-58.1"/>
<polygon fill="black" stroke="black" points="198.66,-55.33 188.28,-53.19 195.05,-61.34 198.66,-55.33"/>
<text xml:space="preserve" text-anchor="middle" x="348.62" y="-94.2" font-family="Times,serif" font-size="14.00">AG 経由（System 2 的）</text>
</g>
</g>
</svg>
