<?xml version="1.0" encoding="UTF-8" standalone="no"?>
<!DOCTYPE svg PUBLIC "-//W3C//DTD SVG 1.1//EN"
 "http://www.w3.org/Graphics/SVG/1.1/DTD/svg11.dtd">
<!-- Generated by graphviz version 13.1.2 (0)
 -->
<!-- Title: ChunkNetwork Pages: 1 -->
<svg width="566pt" height="579pt"
 viewBox="0.00 0.00 566.00 579.00" xmlns="http://www.w3.org/2000/svg" xmlns:xlink="http://www.w3.org/1999/xlink">
<g id="graph0" class="graph" transform="scale(1 1) rotate(0) translate(4 575.38)">
<title>ChunkNetwork</title>
<polygon fill="white" stroke="none" points="-4,4 -4,-575.38 562,-575.38 562,4 -4,4"/>
<text xml:space="preserve" text-anchor="middle" x="279" y="-554.08" font-family="Times,serif" font-size="14.00">Chunk Network in Natural Conversation</text>
<text xml:space="preserve" text-anchor="middle" x="279" y="-539.08" font-family="Times,serif" font-size="14.00">(Immediate Grammar Activation)</text>
<g id="clust1" class="cluster">
<title>cluster_triggers</title>
<polygon fill="#e8e8e8" stroke="#e8e8e8" points="8,-435.38 8,-525.38 550,-525.38 550,-435.38 8,-435.38"/>
<text xml:space="preserve" text-anchor="middle" x="279" y="-508.08" font-family="Times,serif" font-size="14.00">Contextual triggers</text>
<text xml:space="preserve" text-anchor="middle" x="279" y="-493.08" font-family="Times,serif" font-size="14.00">(prosody / turn&#45;taking / stance)</text>
</g>
<!-- C1 -->
<g id="node1" class="node">
<title>C1</title>
<polygon fill="#ffffff" stroke="black" points="180,-263.38 126,-263.38 126,-227.38 180,-227.38 180,-263.38"/>
<text xml:space="preserve" text-anchor="middle" x="153" y="-240.35" font-family="Times,serif" font-size="12.00">Yeah</text>
</g>
<!-- C2 -->
<g id="node2" class="node">
<title>C2</title>
<polygon fill="#ffffff" stroke="black" points="74,-191.38 20,-191.38 20,-155.38 74,-155.38 74,-191.38"/>
<text xml:space="preserve" text-anchor="middle" x="47" y="-168.35" font-family="Times,serif" font-size="12.00">Right</text>
</g>
<!-- C1&#45;&gt;C2 -->
<g id="edge9" class="edge">
<title>C1&#45;&gt;C2</title>
<path fill="none" stroke="#888888" d="M116.93,-220.56C105.82,-213.22 93.6,-205.15 82.52,-197.83"/>
<polygon fill="#888888" stroke="#888888" points="114.99,-223.47 125.26,-226.06 118.85,-217.63 114.99,-223.47"/>
<polygon fill="#888888" stroke="#888888" points="84.67,-195.06 74.4,-192.47 80.82,-200.9 84.67,-195.06"/>
</g>
<!-- Output -->
<g id="node15" class="node">
<title>Output</title>
<ellipse fill="#e8e8e8" stroke="black" cx="265" cy="-23.69" rx="91.92" ry="23.69"/>
<text xml:space="preserve" text-anchor="middle" x="265" y="-25.04" font-family="Times,serif" font-size="12.00">即時発話</text>
<text xml:space="preserve" text-anchor="middle" x="265" y="-12.29" font-family="Times,serif" font-size="12.00">(one&#45;beat response)</text>
</g>
<!-- C1&#45;&gt;Output -->
<g id="edge16" class="edge">
<title>C1&#45;&gt;Output</title>
<path fill="none" stroke="black" d="M153.92,-227.02C156.29,-195.93 164.67,-129.67 194,-83.38 201.29,-71.87 211.58,-61.53 222.08,-52.84"/>
<polygon fill="black" stroke="black" points="223.97,-55.81 229.69,-46.88 219.66,-50.29 223.97,-55.81"/>
</g>
<!-- C10 -->
<g id="node10" class="node">
<title>C10</title>
<polygon fill="#ffffff" stroke="black" points="133,-119.38 75,-119.38 75,-83.38 133,-83.38 133,-119.38"/>
<text xml:space="preserve" text-anchor="middle" x="104" y="-96.35" font-family="Times,serif" font-size="12.00">Exactly</text>
</g>
<!-- C2&#45;&gt;C10 -->
<g id="edge10" class="edge">
<title>C2&#45;&gt;C10</title>
<path fill="none" stroke="#888888" d="M68.34,-146.17C73.11,-140.32 78.16,-134.11 82.92,-128.26"/>
<polygon fill="#888888" stroke="#888888" points="65.65,-143.93 62.05,-153.9 71.07,-148.35 65.65,-143.93"/>
<polygon fill="#888888" stroke="#888888" points="85.52,-130.62 89.12,-120.65 80.09,-126.2 85.52,-130.62"/>
</g>
<!-- C2&#45;&gt;Output -->
<g id="edge17" class="edge">
<title>C2&#45;&gt;Output</title>
<path fill="none" stroke="black" d="M45.8,-154.96C45.42,-135.09 47.96,-102.85 66,-83.38 91.68,-55.66 129.72,-40.8 165.69,-32.92"/>
<polygon fill="black" stroke="black" points="166.17,-36.39 175.29,-30.99 164.79,-29.53 166.17,-36.39"/>
</g>
<!-- C3 -->
<g id="node3" class="node">
<title>C3</title>
<polygon fill="#ffffff" stroke="black" points="229,-407.38 175,-407.38 175,-371.38 229,-371.38 229,-407.38"/>
<text xml:space="preserve" text-anchor="middle" x="202" y="-384.35" font-family="Times,serif" font-size="12.00">I know</text>
</g>
<!-- C8 -->
<g id="node8" class="node">
<title>C8</title>
<polygon fill="#ffffff" stroke="black" points="218,-335.38 164,-335.38 164,-299.38 218,-299.38 218,-335.38"/>
<text xml:space="preserve" text-anchor="middle" x="191" y="-312.35" font-family="Times,serif" font-size="12.00">I see</text>
</g>
<!-- C3&#45;&gt;C8 -->
<g id="edge11" class="edge">
<title>C3&#45;&gt;C8</title>
<path fill="none" stroke="#888888" d="M197.53,-359.9C196.83,-355.5 196.12,-350.96 195.43,-346.56"/>
<polygon fill="#888888" stroke="#888888" points="194.04,-360.24 199.05,-369.58 200.95,-359.16 194.04,-360.24"/>
<polygon fill="#888888" stroke="#888888" points="198.93,-346.31 193.92,-336.98 192.02,-347.4 198.93,-346.31"/>
</g>
<!-- C3&#45;&gt;Output -->
<g id="edge18" class="edge">
<title>C3&#45;&gt;Output</title>
<path fill="none" stroke="black" d="M211.38,-371.13C216.59,-360.96 222.84,-347.71 227,-335.38 239.94,-297.05 246,-286.82 246,-246.38 246,-246.38 246,-246.38 246,-172.38 246,-133.12 252.68,-88.48 258.12,-58.64"/>
<polygon fill="black" stroke="black" points="261.51,-59.56 259.93,-49.08 254.63,-58.26 261.51,-59.56"/>
</g>
<!-- C4 -->
<g id="node4" class="node">
<title>C4</title>
<polygon fill="#ffffff" stroke="black" points="362,-263.38 308,-263.38 308,-227.38 362,-227.38 362,-263.38"/>
<text xml:space="preserve" text-anchor="middle" x="335" y="-240.35" font-family="Times,serif" font-size="12.00">OK</text>
</g>
<!-- C5 -->
<g id="node5" class="node">
<title>C5</title>
<polygon fill="#ffffff" stroke="black" points="366,-191.38 312,-191.38 312,-155.38 366,-155.38 366,-191.38"/>
<text xml:space="preserve" text-anchor="middle" x="339" y="-168.35" font-family="Times,serif" font-size="12.00">Sure</text>
</g>
<!-- C4&#45;&gt;C5 -->
<g id="edge12" class="edge">
<title>C4&#45;&gt;C5</title>
<path fill="none" stroke="#888888" d="M336.64,-215.62C336.89,-211.39 337.13,-207.03 337.37,-202.81"/>
<polygon fill="#888888" stroke="#888888" points="333.15,-215.38 336.08,-225.56 340.14,-215.78 333.15,-215.38"/>
<polygon fill="#888888" stroke="#888888" points="340.86,-203.17 337.94,-192.99 333.87,-202.78 340.86,-203.17"/>
</g>
<!-- C4&#45;&gt;Output -->
<g id="edge19" class="edge">
<title>C4&#45;&gt;Output</title>
<path fill="none" stroke="black" d="M322.55,-226.97C315.9,-216.97 308.07,-203.93 303,-191.38 285.26,-147.43 274.87,-93.46 269.56,-59.06"/>
<polygon fill="black" stroke="black" points="273.03,-58.64 268.11,-49.26 266.11,-59.66 273.03,-58.64"/>
</g>
<!-- C9 -->
<g id="node9" class="node">
<title>C9</title>
<polygon fill="#ffffff" stroke="black" points="404,-119.38 350,-119.38 350,-83.38 404,-83.38 404,-119.38"/>
<text xml:space="preserve" text-anchor="middle" x="377" y="-96.35" font-family="Times,serif" font-size="12.00">Got it</text>
</g>
<!-- C5&#45;&gt;C9 -->
<g id="edge13" class="edge">
<title>C5&#45;&gt;C9</title>
<path fill="none" stroke="#888888" d="M353.84,-145.04C356.61,-139.93 359.51,-134.59 362.29,-129.48"/>
<polygon fill="#888888" stroke="#888888" points="350.81,-143.28 349.12,-153.74 356.96,-146.62 350.81,-143.28"/>
<polygon fill="#888888" stroke="#888888" points="365.3,-131.27 366.99,-120.81 359.15,-127.93 365.3,-131.27"/>
</g>
<!-- C5&#45;&gt;Output -->
<g id="edge20" class="edge">
<title>C5&#45;&gt;Output</title>
<path fill="none" stroke="black" d="M331.54,-155.12C323.62,-137.04 310.53,-107.92 298,-83.38 293.66,-74.86 288.72,-65.8 284.01,-57.41"/>
<polygon fill="black" stroke="black" points="287.17,-55.88 279.19,-48.91 281.08,-59.33 287.17,-55.88"/>
</g>
<!-- C6 -->
<g id="node6" class="node">
<title>C6</title>
<polygon fill="#ffffff" stroke="black" points="480,-407.38 422,-407.38 422,-371.38 480,-371.38 480,-407.38"/>
<text xml:space="preserve" text-anchor="middle" x="451" y="-384.35" font-family="Times,serif" font-size="12.00">Really?</text>
</g>
<!-- C7 -->
<g id="node7" class="node">
<title>C7</title>
<polygon fill="#ffffff" stroke="black" points="514,-335.38 460,-335.38 460,-299.38 514,-299.38 514,-335.38"/>
<text xml:space="preserve" text-anchor="middle" x="487" y="-312.35" font-family="Times,serif" font-size="12.00">No way</text>
</g>
<!-- C6&#45;&gt;C7 -->
<g id="edge14" class="edge">
<title>C6&#45;&gt;C7</title>
<path fill="none" stroke="#888888" d="M465.06,-361.04C467.69,-355.93 470.44,-350.59 473.06,-345.48"/>
<polygon fill="#888888" stroke="#888888" points="462.05,-359.23 460.59,-369.73 468.28,-362.43 462.05,-359.23"/>
<polygon fill="#888888" stroke="#888888" points="476.05,-347.32 477.51,-336.83 469.83,-344.12 476.05,-347.32"/>
</g>
<!-- C6&#45;&gt;Output -->
<g id="edge21" class="edge">
<title>C6&#45;&gt;Output</title>
<path fill="none" stroke="black" d="M447.16,-370.99C441.6,-344.32 432,-291.64 432,-246.38 432,-246.38 432,-246.38 432,-172.38 432,-131.93 439.11,-114.26 413,-83.38 396.52,-63.88 372.67,-50.81 348.91,-42.07"/>
<polygon fill="black" stroke="black" points="350.05,-38.77 339.46,-38.84 347.79,-45.39 350.05,-38.77"/>
</g>
<!-- C7&#45;&gt;Output -->
<g id="edge22" class="edge">
<title>C7&#45;&gt;Output</title>
<path fill="none" stroke="black" d="M489.45,-298.96C494.4,-256.48 500.84,-146.45 446,-83.38 424.38,-58.51 392.13,-44.11 360.82,-35.8"/>
<polygon fill="black" stroke="black" points="361.82,-32.44 351.27,-33.47 360.15,-39.24 361.82,-32.44"/>
</g>
<!-- C8&#45;&gt;C1 -->
<g id="edge15" class="edge">
<title>C8&#45;&gt;C1</title>
<path fill="none" stroke="#888888" d="M176.16,-289.04C173.39,-283.93 170.49,-278.59 167.71,-273.48"/>
<polygon fill="#888888" stroke="#888888" points="173.04,-290.62 180.88,-297.74 179.19,-287.28 173.04,-290.62"/>
<polygon fill="#888888" stroke="#888888" points="170.85,-271.93 163.01,-264.81 164.7,-275.27 170.85,-271.93"/>
</g>
<!-- C8&#45;&gt;Output -->
<g id="edge23" class="edge">
<title>C8&#45;&gt;Output</title>
<path fill="none" stroke="black" d="M192.06,-298.91C194.88,-259.43 204.36,-160.73 232,-83.38 235.13,-74.63 239.49,-65.66 244.02,-57.45"/>
<polygon fill="black" stroke="black" points="247.03,-59.24 249.01,-48.83 240.97,-55.73 247.03,-59.24"/>
</g>
<!-- C9&#45;&gt;Output -->
<g id="edge24" class="edge">
<title>C9&#45;&gt;Output</title>
<path fill="none" stroke="black" d="M351.3,-83.01C337.93,-73.98 321.27,-62.71 306.15,-52.5"/>
<polygon fill="black" stroke="black" points="308.49,-49.85 298.24,-47.15 304.57,-55.65 308.49,-49.85"/>
</g>
<!-- C10&#45;&gt;Output -->
<g id="edge25" class="edge">
<title>C10&#45;&gt;Output</title>
<path fill="none" stroke="black" d="M133.16,-86.67C155,-76.4 185.49,-62.07 211.65,-49.77"/>
<polygon fill="black" stroke="black" points="212.88,-53.06 220.44,-45.64 209.9,-46.73 212.88,-53.06"/>
</g>
<!-- T1 -->
<g id="node11" class="node">
<title>T1</title>
<polygon fill="#ffffff" stroke="black" points="128,-479.38 16,-479.38 16,-443.38 128,-443.38 128,-479.38"/>
<text xml:space="preserve" text-anchor="middle" x="72" y="-462.73" font-family="Times,serif" font-size="12.00">イントネーション</text>
<text xml:space="preserve" text-anchor="middle" x="72" y="-449.98" font-family="Times,serif" font-size="12.00">(prosody)</text>
</g>
<!-- T1&#45;&gt;C1 -->
<g id="edge1" class="edge">
<title>T1&#45;&gt;C1</title>
<path fill="none" stroke="black" d="M78.49,-443.23C92.44,-406.36 125.4,-319.3 142.42,-274.33"/>
<polygon fill="black" stroke="black" points="145.67,-275.62 145.94,-265.02 139.13,-273.14 145.67,-275.62"/>
</g>
<!-- T1&#45;&gt;C2 -->
<g id="edge2" class="edge">
<title>T1&#45;&gt;C2</title>
<path fill="none" stroke="black" d="M70.47,-442.92C66.3,-395.14 54.65,-261.88 49.5,-202.99"/>
<polygon fill="black" stroke="black" points="53,-202.77 48.64,-193.12 46.02,-203.38 53,-202.77"/>
</g>
<!-- T2 -->
<g id="node12" class="node">
<title>T2</title>
<polygon fill="#ffffff" stroke="black" points="394,-479.38 276,-479.38 276,-443.38 394,-443.38 394,-479.38"/>
<text xml:space="preserve" text-anchor="middle" x="335" y="-462.73" font-family="Times,serif" font-size="12.00">ターン交代合図</text>
<text xml:space="preserve" text-anchor="middle" x="335" y="-449.98" font-family="Times,serif" font-size="12.00">(turn&#45;taking cue)</text>
</g>
<!-- T2&#45;&gt;C4 -->
<g id="edge3" class="edge">
<title>T2&#45;&gt;C4</title>
<path fill="none" stroke="black" d="M335,-443.23C335,-406.52 335,-320.04 335,-274.91"/>
<polygon fill="black" stroke="black" points="338.5,-275.12 335,-265.12 331.5,-275.12 338.5,-275.12"/>
</g>
<!-- T2&#45;&gt;C9 -->
<g id="edge4" class="edge">
<title>T2&#45;&gt;C9</title>
<path fill="none" stroke="black" d="M347.51,-442.97C364.83,-417.11 394,-366.43 394,-318.38 394,-318.38 394,-318.38 394,-244.38 394,-204.84 387.42,-159.54 382.45,-130.95"/>
<polygon fill="black" stroke="black" points="385.92,-130.5 380.71,-121.27 379.03,-131.74 385.92,-130.5"/>
</g>
<!-- T3 -->
<g id="node13" class="node">
<title>T3</title>
<polygon fill="#ffffff" stroke="black" points="258,-479.38 146,-479.38 146,-443.38 258,-443.38 258,-479.38"/>
<text xml:space="preserve" text-anchor="middle" x="202" y="-462.73" font-family="Times,serif" font-size="12.00">同意・共感の兆候</text>
<text xml:space="preserve" text-anchor="middle" x="202" y="-449.98" font-family="Times,serif" font-size="12.00">(stance)</text>
</g>
<!-- T3&#45;&gt;C3 -->
<g id="edge5" class="edge">
<title>T3&#45;&gt;C3</title>
<path fill="none" stroke="black" d="M202,-443.07C202,-435.78 202,-427.1 202,-418.91"/>
<polygon fill="black" stroke="black" points="205.5,-418.99 202,-408.99 198.5,-418.99 205.5,-418.99"/>
</g>
<!-- T3&#45;&gt;C10 -->
<g id="edge6" class="edge">
<title>T3&#45;&gt;C10</title>
<path fill="none" stroke="black" d="M188.41,-442.96C181.07,-432.96 172.25,-419.92 166,-407.38 135.85,-346.87 130.71,-329.57 117,-263.38 107.52,-217.6 104.87,-163.17 104.18,-130.77"/>
<polygon fill="black" stroke="black" points="107.68,-130.95 104.02,-121.01 100.68,-131.06 107.68,-130.95"/>
</g>
<!-- T4 -->
<g id="node14" class="node">
<title>T4</title>
<polygon fill="#ffffff" stroke="black" points="542,-479.38 412,-479.38 412,-443.38 542,-443.38 542,-479.38"/>
<text xml:space="preserve" text-anchor="middle" x="477" y="-462.73" font-family="Times,serif" font-size="12.00">驚き・対比</text>
<text xml:space="preserve" text-anchor="middle" x="477" y="-449.98" font-family="Times,serif" font-size="12.00">(surprise/contrast)</text>
</g>
<!-- T4&#45;&gt;C6 -->
<g id="edge7" class="edge">
<title>T4&#45;&gt;C6</title>
<path fill="none" stroke="black" d="M470.57,-443.07C467.77,-435.53 464.42,-426.5 461.28,-418.06"/>
<polygon fill="black" stroke="black" points="464.64,-417.05 457.88,-408.9 458.08,-419.49 464.64,-417.05"/>
</g>
<!-- T4&#45;&gt;C7 -->
<g id="edge8" class="edge">
<title>T4&#45;&gt;C7</title>
<path fill="none" stroke="black" d="M481.99,-442.88C484.66,-432.63 487.66,-419.38 489,-407.38 491.24,-387.38 490.68,-364.71 489.59,-347.25"/>
<polygon fill="black" stroke="black" points="493.09,-347.06 488.87,-337.34 486.11,-347.57 493.09,-347.06"/>
</g>
</g>
</svg>
