<?xml version="1.0" encoding="UTF-8" standalone="no"?>
<!DOCTYPE svg PUBLIC "-//W3C//DTD SVG 1.1//EN"
 "http://www.w3.org/Graphics/SVG/1.1/DTD/svg11.dtd">
<!-- Generated by graphviz version 13.1.2 (0)
 -->
<!-- Title: PGM Pages: 1 -->
<svg width="1134pt" height="226pt"
 viewBox="0.00 0.00 1134.00 226.00" xmlns="http://www.w3.org/2000/svg" xmlns:xlink="http://www.w3.org/1999/xlink">
<g id="graph0" class="graph" transform="scale(1 1) rotate(0) translate(4 222.25)">
<title>PGM</title>
<polygon fill="white" stroke="none" points="-4,4 -4,-222.25 1130,-222.25 1130,4 -4,4"/>
<text xml:space="preserve" text-anchor="middle" x="563" y="-200.95" font-family="Times,serif" font-size="14.00">Process Grammar Model: Two&#45;Layer Structure</text>
<g id="clust1" class="cluster">
<title>cluster_immediate</title>
<polygon fill="#cde7ff" stroke="#cde7ff" points="8,-112.25 8,-187.25 1118,-187.25 1118,-112.25 8,-112.25"/>
<text xml:space="preserve" text-anchor="middle" x="563" y="-169.95" font-family="Times,serif" font-size="14.00">Immediate Grammar (System 1)</text>
</g>
<g id="clust2" class="cluster">
<title>cluster_adjustive</title>
<polygon fill="#ffe7cd" stroke="#ffe7cd" points="336,-8 336,-83 1056,-83 1056,-8 336,-8"/>
<text xml:space="preserve" text-anchor="middle" x="696" y="-65.7" font-family="Times,serif" font-size="14.00">Adjustive Grammar (System 2)</text>
</g>
<!-- IG1 -->
<g id="node1" class="node">
<title>IG1</title>
<polygon fill="#ffffff" stroke="black" points="158,-156.25 16,-156.25 16,-120.25 158,-120.25 158,-156.25"/>
<text xml:space="preserve" text-anchor="middle" x="87" y="-139.6" font-family="Times,serif" font-size="12.00">瞬時の反応</text>
<text xml:space="preserve" text-anchor="middle" x="87" y="-126.85" font-family="Times,serif" font-size="12.00">(one&#45;beat utterances)</text>
</g>
<!-- AG1 -->
<g id="node6" class="node">
<title>AG1</title>
<polygon fill="#ffffff" stroke="black" points="432,-52 344,-52 344,-16 432,-16 432,-52"/>
<text xml:space="preserve" text-anchor="middle" x="388" y="-35.35" font-family="Times,serif" font-size="12.00">文法的完全性</text>
<text xml:space="preserve" text-anchor="middle" x="388" y="-22.6" font-family="Times,serif" font-size="12.00">(完全文構築)</text>
</g>
<!-- IG1&#45;&gt;AG1 -->
<g id="edge1" class="edge">
<title>IG1&#45;&gt;AG1</title>
<path fill="none" stroke="black" d="M138.4,-119.79C192.55,-101.39 277.51,-72.53 332.99,-53.69"/>
<polygon fill="black" stroke="black" points="333.9,-57.08 342.24,-50.54 331.64,-50.45 333.9,-57.08"/>
<text xml:space="preserve" text-anchor="middle" x="230.73" y="-91.8" font-family="Times,serif" font-size="11.00">影響</text>
</g>
<!-- IG2 -->
<g id="node2" class="node">
<title>IG2</title>
<polygon fill="#ffffff" stroke="black" points="390,-156.25 176,-156.25 176,-120.25 390,-120.25 390,-156.25"/>
<text xml:space="preserve" text-anchor="middle" x="283" y="-133.22" font-family="Times,serif" font-size="12.00">省略 (ellipsis)・弱化 (reduction)</text>
</g>
<!-- IG3 -->
<g id="node3" class="node">
<title>IG3</title>
<polygon fill="#ffffff" stroke="black" points="628,-156.25 408,-156.25 408,-120.25 628,-120.25 628,-156.25"/>
<text xml:space="preserve" text-anchor="middle" x="518" y="-139.6" font-family="Times,serif" font-size="12.00">chunk の使用</text>
<text xml:space="preserve" text-anchor="middle" x="518" y="-126.85" font-family="Times,serif" font-size="12.00">(I&#39;m good / I know / Check it out)</text>
</g>
<!-- AG2 -->
<g id="node7" class="node">
<title>AG2</title>
<polygon fill="#ffffff" stroke="black" points="586,-52 450,-52 450,-16 586,-16 586,-52"/>
<text xml:space="preserve" text-anchor="middle" x="518" y="-35.35" font-family="Times,serif" font-size="12.00">論理的構造化</text>
<text xml:space="preserve" text-anchor="middle" x="518" y="-22.6" font-family="Times,serif" font-size="12.00">(従属節・関係詞など)</text>
</g>
<!-- IG3&#45;&gt;AG2 -->
<g id="edge2" class="edge">
<title>IG3&#45;&gt;AG2</title>
<path fill="none" stroke="black" d="M518,-119.9C518,-104.55 518,-81.85 518,-63.78"/>
<polygon fill="black" stroke="black" points="521.5,-63.94 518,-53.94 514.5,-63.94 521.5,-63.94"/>
<text xml:space="preserve" text-anchor="middle" x="529.25" y="-91.8" font-family="Times,serif" font-size="11.00">補完</text>
</g>
<!-- IG4 -->
<g id="node4" class="node">
<title>IG4</title>
<polygon fill="#ffffff" stroke="black" points="908,-156.25 646,-156.25 646,-120.25 908,-120.25 908,-156.25"/>
<text xml:space="preserve" text-anchor="middle" x="777" y="-133.22" font-family="Times,serif" font-size="12.00">prosody（強勢・リズム・イントネーション）</text>
</g>
<!-- IG5 -->
<g id="node5" class="node">
<title>IG5</title>
<polygon fill="#ffffff" stroke="black" points="1110,-156.25 926,-156.25 926,-120.25 1110,-120.25 1110,-156.25"/>
<text xml:space="preserve" text-anchor="middle" x="1018" y="-133.22" font-family="Times,serif" font-size="12.00">対話性（turn&#45;taking の促進）</text>
</g>
<!-- AG3 -->
<g id="node8" class="node">
<title>AG3</title>
<polygon fill="#ffffff" stroke="black" points="740,-52 604,-52 604,-16 740,-16 740,-52"/>
<text xml:space="preserve" text-anchor="middle" x="672" y="-28.98" font-family="Times,serif" font-size="12.00">正確な時制・相の選択</text>
</g>
<!-- AG4 -->
<g id="node9" class="node">
<title>AG4</title>
<polygon fill="#ffffff" stroke="black" points="894,-52 758,-52 758,-16 894,-16 894,-52"/>
<text xml:space="preserve" text-anchor="middle" x="826" y="-28.98" font-family="Times,serif" font-size="12.00">文脈に応じた意味調整</text>
</g>
<!-- AG4&#45;&gt;IG5 -->
<g id="edge3" class="edge">
<title>AG4&#45;&gt;IG5</title>
<path fill="none" stroke="black" d="M852.27,-52.44C866.95,-61.91 885.71,-73.58 903,-83 923.8,-94.34 947.36,-105.7 967.72,-115.08"/>
<polygon fill="black" stroke="black" points="966.12,-118.19 976.67,-119.16 969.02,-111.82 966.12,-118.19"/>
<text xml:space="preserve" text-anchor="middle" x="951.58" y="-91.8" font-family="Times,serif" font-size="11.00">制約</text>
</g>
<!-- AG5 -->
<g id="node10" class="node">
<title>AG5</title>
<polygon fill="#ffffff" stroke="black" points="1048,-52 912,-52 912,-16 1048,-16 1048,-52"/>
<text xml:space="preserve" text-anchor="middle" x="980" y="-28.98" font-family="Times,serif" font-size="12.00">書き言葉的構文の再生</text>
</g>
</g>
</svg>
