<?xml version="1.0" encoding="UTF-8" standalone="no"?>
<!DOCTYPE svg PUBLIC "-//W3C//DTD SVG 1.1//EN"
 "http://www.w3.org/Graphics/SVG/1.1/DTD/svg11.dtd">
<!-- Generated by graphviz version 13.1.2 (0)
 -->
<!-- Title: PGM_Flow Pages: 1 -->
<svg width="594pt" height="496pt"
 viewBox="0.00 0.00 594.00 496.00" xmlns="http://www.w3.org/2000/svg" xmlns:xlink="http://www.w3.org/1999/xlink">
<g id="graph0" class="graph" transform="scale(1 1) rotate(0) translate(4 492.13)">
<title>PGM_Flow</title>
<polygon fill="white" stroke="none" points="-4,4 -4,-492.13 590,-492.13 590,4 -4,4"/>
<text xml:space="preserve" text-anchor="middle" x="293" y="-470.83" font-family="Times,serif" font-size="14.00">Immediate Grammar and Adjustive Grammar: Processing Flow</text>
<g id="clust1" class="cluster">
<title>cluster_IG</title>
<polygon fill="#cde7ff" stroke="#cde7ff" points="8,-65 8,-369.25 214,-369.25 214,-65 8,-65"/>
<text xml:space="preserve" text-anchor="middle" x="111" y="-351.95" font-family="Times,serif" font-size="14.00">Immediate Grammar (System 1)</text>
</g>
<g id="clust2" class="cluster">
<title>cluster_AG</title>
<polygon fill="#ffe7cd" stroke="#ffe7cd" points="354,-65 354,-369.25 578,-369.25 578,-65 354,-65"/>
<text xml:space="preserve" text-anchor="middle" x="466" y="-351.95" font-family="Times,serif" font-size="14.00">Adjustive Grammar (System 2)</text>
</g>
<!-- IG_input -->
<g id="node1" class="node">
<title>IG_input</title>
<polygon fill="#ffffff" stroke="black" points="206,-338.25 16,-338.25 16,-302.25 206,-302.25 206,-338.25"/>
<text xml:space="preserve" text-anchor="middle" x="111" y="-321.6" font-family="Times,serif" font-size="12.00">外的刺激・対話の場面</text>
<text xml:space="preserve" text-anchor="middle" x="111" y="-308.85" font-family="Times,serif" font-size="12.00">(situation / turn&#45;taking cue)</text>
</g>
<!-- IG_react -->
<g id="node2" class="node">
<title>IG_react</title>
<polygon fill="#ffffff" stroke="black" points="170,-265.25 40,-265.25 40,-229.25 170,-229.25 170,-265.25"/>
<text xml:space="preserve" text-anchor="middle" x="105" y="-248.6" font-family="Times,serif" font-size="12.00">瞬時の反応生成</text>
<text xml:space="preserve" text-anchor="middle" x="105" y="-235.85" font-family="Times,serif" font-size="12.00">(one&#45;beat reaction)</text>
</g>
<!-- IG_input&#45;&gt;IG_react -->
<g id="edge1" class="edge">
<title>IG_input&#45;&gt;IG_react</title>
<path fill="none" stroke="black" d="M109.55,-302.06C108.9,-294.39 108.12,-285.14 107.39,-276.49"/>
<polygon fill="black" stroke="black" points="110.9,-276.46 106.57,-266.79 103.92,-277.05 110.9,-276.46"/>
</g>
<!-- IG_chunk -->
<g id="node3" class="node">
<title>IG_chunk</title>
<polygon fill="#ffffff" stroke="black" points="194,-182 16,-182 16,-146 194,-146 194,-182"/>
<text xml:space="preserve" text-anchor="middle" x="105" y="-165.35" font-family="Times,serif" font-size="12.00">chunk の活性化</text>
<text xml:space="preserve" text-anchor="middle" x="105" y="-152.6" font-family="Times,serif" font-size="12.00">(I&#39;m good / I know / Right)</text>
</g>
<!-- IG_react&#45;&gt;IG_chunk -->
<g id="edge2" class="edge">
<title>IG_react&#45;&gt;IG_chunk</title>
<path fill="none" stroke="black" d="M105,-229.02C105,-218.75 105,-205.45 105,-193.64"/>
<polygon fill="black" stroke="black" points="108.5,-194 105,-184 101.5,-194 108.5,-194"/>
</g>
<!-- IG_output -->
<g id="node4" class="node">
<title>IG_output</title>
<polygon fill="#ffffff" stroke="black" points="206,-109 22,-109 22,-73 206,-73 206,-109"/>
<text xml:space="preserve" text-anchor="middle" x="114" y="-92.35" font-family="Times,serif" font-size="12.00">即時発話</text>
<text xml:space="preserve" text-anchor="middle" x="114" y="-79.6" font-family="Times,serif" font-size="12.00">(short / reduced / prosodic)</text>
</g>
<!-- IG_chunk&#45;&gt;IG_output -->
<g id="edge3" class="edge">
<title>IG_chunk&#45;&gt;IG_output</title>
<path fill="none" stroke="black" d="M107.18,-145.81C108.15,-138.14 109.32,-128.89 110.42,-120.24"/>
<polygon fill="black" stroke="black" points="113.87,-120.89 111.65,-110.53 106.92,-120.01 113.87,-120.89"/>
</g>
<!-- AG_input -->
<g id="node5" class="node">
<title>AG_input</title>
<polygon fill="#ffffff" stroke="black" points="504,-338.25 362,-338.25 362,-302.25 504,-302.25 504,-338.25"/>
<text xml:space="preserve" text-anchor="middle" x="433" y="-321.6" font-family="Times,serif" font-size="12.00">意味・文脈の評価</text>
<text xml:space="preserve" text-anchor="middle" x="433" y="-308.85" font-family="Times,serif" font-size="12.00">(semantic evaluation)</text>
</g>
<!-- IG_output&#45;&gt;AG_input -->
<g id="edge11" class="edge">
<title>IG_output&#45;&gt;AG_input</title>
<path fill="none" stroke="black" stroke-dasharray="5,2" d="M160.66,-109.41C203.71,-127.21 267.5,-158.16 312,-200 336.95,-223.46 329.18,-240.64 353,-265.25 364.25,-276.88 378.4,-287.42 391.65,-296.03"/>
<polygon fill="black" stroke="black" points="389.48,-298.8 399.81,-301.15 393.2,-292.87 389.48,-298.8"/>
<text xml:space="preserve" text-anchor="middle" x="361.18" y="-200.8" font-family="Times,serif" font-size="11.00">必要に応じ調整</text>
</g>
<!-- End -->
<g id="node10" class="node">
<title>End</title>
<ellipse fill="#e8e8e8" stroke="black" cx="286" cy="-18" rx="46.5" ry="18"/>
<text xml:space="preserve" text-anchor="middle" x="286" y="-12.97" font-family="Times,serif" font-size="12.00">発話の完了</text>
</g>
<!-- IG_output&#45;&gt;End -->
<g id="edge9" class="edge">
<title>IG_output&#45;&gt;End</title>
<path fill="none" stroke="black" d="M156.08,-72.63C182.91,-61.55 217.55,-47.26 244.31,-36.21"/>
<polygon fill="black" stroke="black" points="245.57,-39.48 253.48,-32.42 242.9,-33 245.57,-39.48"/>
</g>
<!-- AG_construct -->
<g id="node6" class="node">
<title>AG_construct</title>
<polygon fill="#ffffff" stroke="black" points="570,-265.25 362,-265.25 362,-229.25 570,-229.25 570,-265.25"/>
<text xml:space="preserve" text-anchor="middle" x="466" y="-248.6" font-family="Times,serif" font-size="12.00">文の構築</text>
<text xml:space="preserve" text-anchor="middle" x="466" y="-235.85" font-family="Times,serif" font-size="12.00">(tense/aspect/logical structure)</text>
</g>
<!-- AG_input&#45;&gt;AG_construct -->
<g id="edge4" class="edge">
<title>AG_input&#45;&gt;AG_construct</title>
<path fill="none" stroke="black" d="M440.99,-302.06C444.68,-294.13 449.15,-284.51 453.28,-275.61"/>
<polygon fill="black" stroke="black" points="456.41,-277.19 457.45,-266.65 450.06,-274.24 456.41,-277.19"/>
</g>
<!-- AG_monitor -->
<g id="node7" class="node">
<title>AG_monitor</title>
<polygon fill="#ffffff" stroke="black" points="554,-182 370,-182 370,-146 554,-146 554,-182"/>
<text xml:space="preserve" text-anchor="middle" x="462" y="-165.35" font-family="Times,serif" font-size="12.00">モニタリング</text>
<text xml:space="preserve" text-anchor="middle" x="462" y="-152.6" font-family="Times,serif" font-size="12.00">(self&#45;correction / accuracy)</text>
</g>
<!-- AG_construct&#45;&gt;AG_monitor -->
<g id="edge5" class="edge">
<title>AG_construct&#45;&gt;AG_monitor</title>
<path fill="none" stroke="black" d="M465.15,-229.02C464.65,-218.75 463.99,-205.45 463.41,-193.64"/>
<polygon fill="black" stroke="black" points="466.92,-193.81 462.94,-184 459.93,-194.16 466.92,-193.81"/>
</g>
<!-- AG_output -->
<g id="node8" class="node">
<title>AG_output</title>
<polygon fill="#ffffff" stroke="black" points="558,-109 362,-109 362,-73 558,-73 558,-109"/>
<text xml:space="preserve" text-anchor="middle" x="460" y="-92.35" font-family="Times,serif" font-size="12.00">調整文法による発話</text>
<text xml:space="preserve" text-anchor="middle" x="460" y="-79.6" font-family="Times,serif" font-size="12.00">(full sentence / written&#45;like)</text>
</g>
<!-- AG_monitor&#45;&gt;AG_output -->
<g id="edge6" class="edge">
<title>AG_monitor&#45;&gt;AG_output</title>
<path fill="none" stroke="black" d="M461.52,-145.81C461.3,-138.14 461.04,-128.89 460.8,-120.24"/>
<polygon fill="black" stroke="black" points="464.3,-120.44 460.52,-110.54 457.31,-120.64 464.3,-120.44"/>
</g>
<!-- AG_output&#45;&gt;IG_input -->
<g id="edge12" class="edge">
<title>AG_output&#45;&gt;IG_input</title>
<path fill="none" stroke="black" stroke-dasharray="5,2" d="M361.59,-109.36C305.34,-124.24 237.79,-151.33 195.5,-200 175.88,-222.58 195.23,-240.13 179,-265.25 171.52,-276.82 160.71,-287.02 149.91,-295.34"/>
<polygon fill="black" stroke="black" points="148.16,-292.28 142.13,-300.99 152.28,-297.95 148.16,-292.28"/>
<text xml:space="preserve" text-anchor="middle" x="251.75" y="-200.8" font-family="Times,serif" font-size="11.00">対話状況により即時化</text>
</g>
<!-- AG_output&#45;&gt;End -->
<g id="edge10" class="edge">
<title>AG_output&#45;&gt;End</title>
<path fill="none" stroke="black" d="M417.43,-72.63C390.08,-61.47 354.71,-47.04 327.55,-35.96"/>
<polygon fill="black" stroke="black" points="329.19,-32.84 318.61,-32.31 326.55,-39.33 329.19,-32.84"/>
</g>
<!-- Start -->
<g id="node9" class="node">
<title>Start</title>
<ellipse fill="#e8e8e8" stroke="black" cx="271" cy="-441.44" rx="83.44" ry="23.69"/>
<text xml:space="preserve" text-anchor="middle" x="271" y="-442.79" font-family="Times,serif" font-size="12.00">発話の開始</text>
<text xml:space="preserve" text-anchor="middle" x="271" y="-430.04" font-family="Times,serif" font-size="12.00">(intent to speak)</text>
</g>
<!-- Start&#45;&gt;IG_input -->
<g id="edge7" class="edge">
<title>Start&#45;&gt;IG_input</title>
<path fill="none" stroke="black" d="M242.03,-418.85C214.15,-398.09 172.1,-366.76 143.19,-345.23"/>
<polygon fill="black" stroke="black" points="145.63,-342.68 135.52,-339.52 141.45,-348.3 145.63,-342.68"/>
<text xml:space="preserve" text-anchor="middle" x="269.81" y="-389.3" font-family="Times,serif" font-size="11.00">即時性が必要</text>
<text xml:space="preserve" text-anchor="middle" x="269.81" y="-378.05" font-family="Times,serif" font-size="11.00">(dialogue / reaction)</text>
</g>
<!-- Start&#45;&gt;AG_input -->
<g id="edge8" class="edge">
<title>Start&#45;&gt;AG_input</title>
<path fill="none" stroke="black" d="M301.84,-419.1C310.66,-412.92 320.25,-406.12 329,-399.75 353.58,-381.86 381.02,-361.11 401.54,-345.44"/>
<polygon fill="black" stroke="black" points="403.43,-348.41 409.25,-339.55 399.18,-342.85 403.43,-348.41"/>
<text xml:space="preserve" text-anchor="middle" x="423.42" y="-389.3" font-family="Times,serif" font-size="11.00">説明性・正確さが必要</text>
<text xml:space="preserve" text-anchor="middle" x="423.42" y="-378.05" font-family="Times,serif" font-size="11.00">(monologue / instruction)</text>
</g>
</g>
</svg>
