<?xml version="1.0" encoding="UTF-8" standalone="no"?>
<!DOCTYPE svg PUBLIC "-//W3C//DTD SVG 1.1//EN"
 "http://www.w3.org/Graphics/SVG/1.1/DTD/svg11.dtd">
<!-- Generated by graphviz version 14.0.5 (0)
 -->
<!-- Title: WorldKnowledge Pages: 1 -->
<svg width="421pt" height="383pt"
 viewBox="0.00 0.00 421.00 383.00" xmlns="http://www.w3.org/2000/svg" xmlns:xlink="http://www.w3.org/1999/xlink">
<g id="graph0" class="graph" transform="scale(1 1) rotate(0) translate(4 379.21)">
<title>WorldKnowledge</title>
<polygon fill="white" stroke="none" points="-4,4 -4,-379.21 417.24,-379.21 417.24,4 -4,4"/>
<g id="clust1" class="cluster">
<title>cluster_physical</title>
<polygon fill="none" stroke="lightgrey" points="0,-129.59 0,-284.59 152.89,-284.59 152.89,-129.59 0,-129.59"/>
<text xml:space="preserve" text-anchor="middle" x="76.44" y="-271.09" font-family="Times,serif" font-size="10.00">1. Physical World</text>
</g>
<g id="clust2" class="cluster">
<title>cluster_social</title>
<polygon fill="none" stroke="lightgrey" points="81.95,0 81.95,-122.34 254.24,-122.34 254.24,0 81.95,0"/>
<text xml:space="preserve" text-anchor="middle" x="168.1" y="-108.84" font-family="Times,serif" font-size="10.00">2. Social &amp; Cultural World</text>
</g>
<g id="clust3" class="cluster">
<title>cluster_psych</title>
<polygon fill="none" stroke="lightgrey" points="252.4,-126.43 252.4,-267.72 413.24,-267.72 413.24,-126.43 252.4,-126.43"/>
<text xml:space="preserve" text-anchor="middle" x="332.82" y="-254.22" font-family="Times,serif" font-size="10.00">3. Mind &amp; Behavior</text>
</g>
<g id="clust4" class="cluster">
<title>cluster_language</title>
<polygon fill="none" stroke="lightgrey" points="203.14,-65.68 203.14,-174.17 351.32,-174.17 351.32,-65.68 203.14,-65.68"/>
<text xml:space="preserve" text-anchor="middle" x="277.23" y="-160.67" font-family="Times,serif" font-size="10.00">4. Language System</text>
</g>
<g id="clust5" class="cluster">
<title>cluster_domains</title>
<polygon fill="none" stroke="lightgrey" points="65.51,-251.36 65.51,-375.21 219.18,-375.21 219.18,-251.36 65.51,-251.36"/>
<text xml:space="preserve" text-anchor="middle" x="142.34" y="-361.71" font-family="Times,serif" font-size="10.00">5. Knowledge Domains</text>
</g>
<g id="clust6" class="cluster">
<title>cluster_inference</title>
<polygon fill="none" stroke="lightgrey" points="210.46,-232.96 210.46,-353.67 342.02,-353.67 342.02,-232.96 210.46,-232.96"/>
<text xml:space="preserve" text-anchor="middle" x="276.24" y="-340.17" font-family="Times,serif" font-size="10.00">6. Causality &amp; Reasoning</text>
</g>
<!-- World -->
<g id="node1" class="node">
<title>World</title>
<path fill="none" stroke="black" d="M227.12,-212.56C227.12,-212.56 169.87,-212.56 169.87,-212.56 163.87,-212.56 157.87,-206.56 157.87,-200.56 157.87,-200.56 157.87,-188.56 157.87,-188.56 157.87,-182.56 163.87,-176.56 169.87,-176.56 169.87,-176.56 227.12,-176.56 227.12,-176.56 233.12,-176.56 239.12,-182.56 239.12,-188.56 239.12,-188.56 239.12,-200.56 239.12,-200.56 239.12,-206.56 233.12,-212.56 227.12,-212.56"/>
<text xml:space="preserve" text-anchor="middle" x="198.5" y="-191.26" font-family="Times,serif" font-size="9.00">World Knowledge</text>
</g>
<!-- PW_anchor -->
<g id="node2" class="node">
<title>PW_anchor</title>
<ellipse fill="white" stroke="black" cx="112.09" cy="-211.39" rx="40.8" ry="18"/>
<text xml:space="preserve" text-anchor="middle" x="112.09" y="-208.09" font-family="Times,serif" font-size="9.00">Physical World</text>
</g>
<!-- World&#45;&gt;PW_anchor -->
<g id="edge22" class="edge">
<title>World&#45;&gt;PW_anchor</title>
<path fill="none" stroke="black" d="M157.57,-202.54C157.41,-202.57 157.24,-202.6 157.08,-202.63"/>
<polygon fill="black" stroke="black" points="160.36,-198.43 151.21,-203.77 161.69,-205.3 160.36,-198.43"/>
</g>
<!-- SC_anchor -->
<g id="node7" class="node">
<title>SC_anchor</title>
<ellipse fill="white" stroke="black" cx="184.61" cy="-104.34" rx="45.17" ry="18"/>
<text xml:space="preserve" text-anchor="middle" x="184.61" y="-101.04" font-family="Times,serif" font-size="9.00">Social &amp; Cultural</text>
</g>
<!-- World&#45;&gt;SC_anchor -->
<g id="edge23" class="edge">
<title>World&#45;&gt;SC_anchor</title>
<path fill="none" stroke="black" d="M195.69,-176.3C193.8,-164.07 191.29,-147.71 189.12,-133.67"/>
<polygon fill="black" stroke="black" points="192.63,-133.41 187.65,-124.06 185.71,-134.48 192.63,-133.41"/>
</g>
<!-- MB_anchor -->
<g id="node12" class="node">
<title>MB_anchor</title>
<ellipse fill="white" stroke="black" cx="298.45" cy="-194.91" rx="46.04" ry="18"/>
<text xml:space="preserve" text-anchor="middle" x="298.45" y="-191.61" font-family="Times,serif" font-size="9.00">Mind &amp; Behavior</text>
</g>
<!-- World&#45;&gt;MB_anchor -->
<g id="edge24" class="edge">
<title>World&#45;&gt;MB_anchor</title>
<path fill="none" stroke="black" d="M239.44,-194.71C239.96,-194.71 240.49,-194.71 241.02,-194.71"/>
<polygon fill="black" stroke="black" points="240.67,-198.21 250.68,-194.75 240.69,-191.21 240.67,-198.21"/>
</g>
<!-- LG_anchor -->
<g id="node16" class="node">
<title>LG_anchor</title>
<ellipse fill="white" stroke="black" cx="249.18" cy="-156.17" rx="46.04" ry="18"/>
<text xml:space="preserve" text-anchor="middle" x="249.18" y="-152.87" font-family="Times,serif" font-size="9.00">Language System</text>
</g>
<!-- World&#45;&gt;LG_anchor -->
<g id="edge25" class="edge">
<title>World&#45;&gt;LG_anchor</title>
<path fill="none" stroke="black" d="M222.65,-176.27C222.76,-176.18 222.87,-176.1 222.98,-176.02"/>
<polygon fill="black" stroke="black" points="220.78,-182.08 226.64,-173.25 216.55,-176.5 220.78,-182.08"/>
</g>
<!-- KD_anchor -->
<g id="node20" class="node">
<title>KD_anchor</title>
<ellipse fill="white" stroke="black" cx="163.02" cy="-269.36" rx="53.48" ry="18"/>
<text xml:space="preserve" text-anchor="middle" x="163.02" y="-266.06" font-family="Times,serif" font-size="9.00">Knowledge Domains</text>
</g>
<!-- World&#45;&gt;KD_anchor -->
<g id="edge26" class="edge">
<title>World&#45;&gt;KD_anchor</title>
<path fill="none" stroke="black" d="M189.73,-213.05C185.7,-221.54 180.84,-231.79 176.38,-241.21"/>
<polygon fill="black" stroke="black" points="173.34,-239.44 172.22,-249.98 179.67,-242.44 173.34,-239.44"/>
</g>
<!-- INF_anchor -->
<g id="node25" class="node">
<title>INF_anchor</title>
<ellipse fill="white" stroke="black" cx="239.02" cy="-250.96" rx="28.56" ry="18"/>
<text xml:space="preserve" text-anchor="middle" x="239.02" y="-247.66" font-family="Times,serif" font-size="9.00">Inference</text>
</g>
<!-- World&#45;&gt;INF_anchor -->
<g id="edge27" class="edge">
<title>World&#45;&gt;INF_anchor</title>
<path fill="none" stroke="black" d="M211.77,-213.03C214.52,-216.86 217.47,-220.97 220.37,-225.01"/>
<polygon fill="black" stroke="black" points="217.4,-226.86 226.07,-232.94 223.08,-222.78 217.4,-226.86"/>
</g>
<!-- Space -->
<g id="node3" class="node">
<title>Space</title>
<path fill="none" stroke="black" d="M76.44,-165.59C76.44,-165.59 46.44,-165.59 46.44,-165.59 40.44,-165.59 34.44,-159.59 34.44,-153.59 34.44,-153.59 34.44,-141.59 34.44,-141.59 34.44,-135.59 40.44,-129.59 46.44,-129.59 46.44,-129.59 76.44,-129.59 76.44,-129.59 82.44,-129.59 88.44,-135.59 88.44,-141.59 88.44,-141.59 88.44,-153.59 88.44,-153.59 88.44,-159.59 82.44,-165.59 76.44,-165.59"/>
<text xml:space="preserve" text-anchor="middle" x="61.44" y="-144.29" font-family="Times,serif" font-size="9.00">Space</text>
</g>
<!-- PW_anchor&#45;&gt;Space -->
<g id="edge1" class="edge">
<title>PW_anchor&#45;&gt;Space</title>
<path fill="none" stroke="black" d="M98.52,-194.3C93.76,-188.31 88.3,-181.42 83.05,-174.81"/>
<polygon fill="black" stroke="black" points="86.02,-172.92 77.06,-167.27 80.53,-177.27 86.02,-172.92"/>
</g>
<!-- Time -->
<g id="node4" class="node">
<title>Time</title>
<path fill="none" stroke="black" d="M42,-242.7C42,-242.7 12,-242.7 12,-242.7 6,-242.7 0,-236.7 0,-230.7 0,-230.7 0,-218.7 0,-218.7 0,-212.7 6,-206.7 12,-206.7 12,-206.7 42,-206.7 42,-206.7 48,-206.7 54,-212.7 54,-218.7 54,-218.7 54,-230.7 54,-230.7 54,-236.7 48,-242.7 42,-242.7"/>
<text xml:space="preserve" text-anchor="middle" x="27" y="-221.4" font-family="Times,serif" font-size="9.00">Time</text>
</g>
<!-- PW_anchor&#45;&gt;Time -->
<g id="edge2" class="edge">
<title>PW_anchor&#45;&gt;Time</title>
<path fill="none" stroke="black" d="M73.53,-217.43C70.88,-217.84 68.22,-218.26 65.58,-218.67"/>
<polygon fill="black" stroke="black" points="65.08,-215.21 55.74,-220.21 66.16,-222.12 65.08,-215.21"/>
</g>
<!-- Matter -->
<g id="node5" class="node">
<title>Matter</title>
<path fill="none" stroke="black" d="M57.27,-284.59C57.27,-284.59 27.27,-284.59 27.27,-284.59 21.27,-284.59 15.27,-278.59 15.27,-272.59 15.27,-272.59 15.27,-260.59 15.27,-260.59 15.27,-254.59 21.27,-248.59 27.27,-248.59 27.27,-248.59 57.27,-248.59 57.27,-248.59 63.27,-248.59 69.27,-254.59 69.27,-260.59 69.27,-260.59 69.27,-272.59 69.27,-272.59 69.27,-278.59 63.27,-284.59 57.27,-284.59"/>
<text xml:space="preserve" text-anchor="middle" x="42.27" y="-263.29" font-family="Times,serif" font-size="9.00">Matter</text>
</g>
<!-- PW_anchor&#45;&gt;Matter -->
<g id="edge3" class="edge">
<title>PW_anchor&#45;&gt;Matter</title>
<path fill="none" stroke="black" d="M91.89,-227.36C86.37,-231.72 80.25,-236.56 74.25,-241.31"/>
<polygon fill="black" stroke="black" points="72.48,-238.25 66.81,-247.19 76.82,-243.74 72.48,-238.25"/>
</g>
<!-- Life -->
<g id="node6" class="node">
<title>Life</title>
<path fill="none" stroke="black" d="M46.73,-197.18C46.73,-197.18 16.73,-197.18 16.73,-197.18 10.73,-197.18 4.73,-191.18 4.73,-185.18 4.73,-185.18 4.73,-173.18 4.73,-173.18 4.73,-167.18 10.73,-161.18 16.73,-161.18 16.73,-161.18 46.73,-161.18 46.73,-161.18 52.73,-161.18 58.73,-167.18 58.73,-173.18 58.73,-173.18 58.73,-185.18 58.73,-185.18 58.73,-191.18 52.73,-197.18 46.73,-197.18"/>
<text xml:space="preserve" text-anchor="middle" x="31.73" y="-175.88" font-family="Times,serif" font-size="9.00">Life</text>
</g>
<!-- PW_anchor&#45;&gt;Life -->
<g id="edge4" class="edge">
<title>PW_anchor&#45;&gt;Life</title>
<path fill="none" stroke="black" d="M81.71,-199.21C77.74,-197.62 73.64,-195.98 69.57,-194.35"/>
<polygon fill="black" stroke="black" points="70.97,-191.14 60.39,-190.67 68.37,-197.64 70.97,-191.14"/>
</g>
<!-- PW_anchor&#45;&gt;KD_anchor -->
<g id="edge28" class="edge">
<title>PW_anchor&#45;&gt;KD_anchor</title>
<path fill="none" stroke="black" d="M127.1,-228.47C131.23,-233.18 135.81,-238.4 140.28,-243.48"/>
<polygon fill="black" stroke="black" points="137.37,-245.47 146.6,-250.67 142.62,-240.85 137.37,-245.47"/>
<text xml:space="preserve" text-anchor="middle" x="105.19" y="-238.13" font-family="Times,serif" font-size="8.00">basis for sciences</text>
</g>
<!-- Groups -->
<g id="node8" class="node">
<title>Groups</title>
<path fill="none" stroke="black" d="M242.24,-40.44C242.24,-40.44 212.24,-40.44 212.24,-40.44 206.24,-40.44 200.24,-34.44 200.24,-28.44 200.24,-28.44 200.24,-16.44 200.24,-16.44 200.24,-10.44 206.24,-4.44 212.24,-4.44 212.24,-4.44 242.24,-4.44 242.24,-4.44 248.24,-4.44 254.24,-10.44 254.24,-16.44 254.24,-16.44 254.24,-28.44 254.24,-28.44 254.24,-34.44 248.24,-40.44 242.24,-40.44"/>
<text xml:space="preserve" text-anchor="middle" x="227.24" y="-19.14" font-family="Times,serif" font-size="9.00">Groups</text>
</g>
<!-- SC_anchor&#45;&gt;Groups -->
<g id="edge5" class="edge">
<title>SC_anchor&#45;&gt;Groups</title>
<path fill="none" stroke="black" d="M193.86,-86.57C199.32,-76.09 206.34,-62.59 212.54,-50.68"/>
<polygon fill="black" stroke="black" points="215.5,-52.57 217.02,-42.08 209.29,-49.34 215.5,-52.57"/>
</g>
<!-- Roles -->
<g id="node9" class="node">
<title>Roles</title>
<path fill="none" stroke="black" d="M123.95,-87.67C123.95,-87.67 93.95,-87.67 93.95,-87.67 87.95,-87.67 81.95,-81.67 81.95,-75.67 81.95,-75.67 81.95,-63.67 81.95,-63.67 81.95,-57.67 87.95,-51.67 93.95,-51.67 93.95,-51.67 123.95,-51.67 123.95,-51.67 129.95,-51.67 135.95,-57.67 135.95,-63.67 135.95,-63.67 135.95,-75.67 135.95,-75.67 135.95,-81.67 129.95,-87.67 123.95,-87.67"/>
<text xml:space="preserve" text-anchor="middle" x="108.95" y="-66.37" font-family="Times,serif" font-size="9.00">Roles</text>
</g>
<!-- SC_anchor&#45;&gt;Roles -->
<g id="edge6" class="edge">
<title>SC_anchor&#45;&gt;Roles</title>
<path fill="none" stroke="black" d="M154.71,-90.64C152.03,-89.41 149.3,-88.16 146.58,-86.91"/>
<polygon fill="black" stroke="black" points="148.1,-83.76 137.56,-82.78 145.19,-90.13 148.1,-83.76"/>
</g>
<!-- Norms -->
<g id="node10" class="node">
<title>Norms</title>
<path fill="none" stroke="black" d="M196.07,-36C196.07,-36 166.07,-36 166.07,-36 160.07,-36 154.07,-30 154.07,-24 154.07,-24 154.07,-12 154.07,-12 154.07,-6 160.07,0 166.07,0 166.07,0 196.07,0 196.07,0 202.07,0 208.07,-6 208.07,-12 208.07,-12 208.07,-24 208.07,-24 208.07,-30 202.07,-36 196.07,-36"/>
<text xml:space="preserve" text-anchor="middle" x="181.07" y="-14.7" font-family="Times,serif" font-size="9.00">Norms</text>
</g>
<!-- SC_anchor&#45;&gt;Norms -->
<g id="edge7" class="edge">
<title>SC_anchor&#45;&gt;Norms</title>
<path fill="none" stroke="black" d="M183.86,-86.03C183.4,-74.92 182.81,-60.49 182.29,-47.78"/>
<polygon fill="black" stroke="black" points="185.79,-47.64 181.88,-37.8 178.79,-47.93 185.79,-47.64"/>
</g>
<!-- Culture -->
<g id="node11" class="node">
<title>Culture</title>
<path fill="none" stroke="black" d="M151.4,-51.91C151.4,-51.91 121.4,-51.91 121.4,-51.91 115.4,-51.91 109.4,-45.91 109.4,-39.91 109.4,-39.91 109.4,-27.91 109.4,-27.91 109.4,-21.91 115.4,-15.91 121.4,-15.91 121.4,-15.91 151.4,-15.91 151.4,-15.91 157.4,-15.91 163.4,-21.91 163.4,-27.91 163.4,-27.91 163.4,-39.91 163.4,-39.91 163.4,-45.91 157.4,-51.91 151.4,-51.91"/>
<text xml:space="preserve" text-anchor="middle" x="136.4" y="-30.61" font-family="Times,serif" font-size="9.00">Culture</text>
</g>
<!-- SC_anchor&#45;&gt;Culture -->
<g id="edge8" class="edge">
<title>SC_anchor&#45;&gt;Culture</title>
<path fill="none" stroke="black" d="M172.45,-86.56C167.18,-78.87 160.89,-69.68 155.05,-61.15"/>
<polygon fill="black" stroke="black" points="158.12,-59.44 149.59,-53.17 152.35,-63.4 158.12,-59.44"/>
</g>
<!-- Emotion -->
<g id="node13" class="node">
<title>Emotion</title>
<path fill="none" stroke="black" d="M393.99,-162.43C393.99,-162.43 363.99,-162.43 363.99,-162.43 357.99,-162.43 351.99,-156.43 351.99,-150.43 351.99,-150.43 351.99,-138.43 351.99,-138.43 351.99,-132.43 357.99,-126.43 363.99,-126.43 363.99,-126.43 393.99,-126.43 393.99,-126.43 399.99,-126.43 405.99,-132.43 405.99,-138.43 405.99,-138.43 405.99,-150.43 405.99,-150.43 405.99,-156.43 399.99,-162.43 393.99,-162.43"/>
<text xml:space="preserve" text-anchor="middle" x="378.99" y="-141.13" font-family="Times,serif" font-size="9.00">Emotion</text>
</g>
<!-- MB_anchor&#45;&gt;Emotion -->
<g id="edge9" class="edge">
<title>MB_anchor&#45;&gt;Emotion</title>
<path fill="none" stroke="black" d="M323.05,-179.49C329.14,-175.67 335.8,-171.5 342.33,-167.41"/>
<polygon fill="black" stroke="black" points="343.83,-170.6 350.45,-162.32 340.12,-164.67 343.83,-170.6"/>
</g>
<!-- Cognition -->
<g id="node14" class="node">
<title>Cognition</title>
<path fill="none" stroke="black" d="M401.24,-217.59C401.24,-217.59 371.24,-217.59 371.24,-217.59 365.24,-217.59 359.24,-211.59 359.24,-205.59 359.24,-205.59 359.24,-193.59 359.24,-193.59 359.24,-187.59 365.24,-181.59 371.24,-181.59 371.24,-181.59 401.24,-181.59 401.24,-181.59 407.24,-181.59 413.24,-187.59 413.24,-193.59 413.24,-193.59 413.24,-205.59 413.24,-205.59 413.24,-211.59 407.24,-217.59 401.24,-217.59"/>
<text xml:space="preserve" text-anchor="middle" x="386.24" y="-196.29" font-family="Times,serif" font-size="9.00">Cognition</text>
</g>
<!-- MB_anchor&#45;&gt;Cognition -->
<g id="edge10" class="edge">
<title>MB_anchor&#45;&gt;Cognition</title>
<path fill="none" stroke="black" d="M344.4,-197.36C345.49,-197.42 346.57,-197.47 347.66,-197.53"/>
<polygon fill="black" stroke="black" points="347.29,-201.02 357.46,-198.05 347.66,-194.03 347.29,-201.02"/>
</g>
<!-- Motivation -->
<g id="node15" class="node">
<title>Motivation</title>
<path fill="none" stroke="black" d="M384.27,-267.72C384.27,-267.72 353.27,-267.72 353.27,-267.72 347.27,-267.72 341.27,-261.72 341.27,-255.72 341.27,-255.72 341.27,-243.72 341.27,-243.72 341.27,-237.72 347.27,-231.72 353.27,-231.72 353.27,-231.72 384.27,-231.72 384.27,-231.72 390.27,-231.72 396.27,-237.72 396.27,-243.72 396.27,-243.72 396.27,-255.72 396.27,-255.72 396.27,-261.72 390.27,-267.72 384.27,-267.72"/>
<text xml:space="preserve" text-anchor="middle" x="368.77" y="-246.42" font-family="Times,serif" font-size="9.00">Motivation</text>
</g>
<!-- MB_anchor&#45;&gt;Motivation -->
<g id="edge11" class="edge">
<title>MB_anchor&#45;&gt;Motivation</title>
<path fill="none" stroke="black" d="M319.55,-211.36C324.86,-215.5 330.68,-220.03 336.4,-224.49"/>
<polygon fill="black" stroke="black" points="333.99,-227.05 344.03,-230.44 338.29,-221.53 333.99,-227.05"/>
</g>
<!-- MB_anchor&#45;&gt;LG_anchor -->
<g id="edge29" class="edge">
<title>MB_anchor&#45;&gt;LG_anchor</title>
<path fill="none" stroke="black" d="M277.55,-178.48C277.4,-178.36 277.24,-178.23 277.08,-178.11"/>
<polygon fill="black" stroke="black" points="281.16,-176.87 271.14,-173.44 276.84,-182.37 281.16,-176.87"/>
<text xml:space="preserve" text-anchor="middle" x="311.07" y="-170.7" font-family="Times,serif" font-size="8.00">enables language use</text>
</g>
<!-- LG_anchor&#45;&gt;SC_anchor -->
<g id="edge30" class="edge">
<title>LG_anchor&#45;&gt;SC_anchor</title>
<path fill="none" stroke="black" d="M228.75,-139.77C224.04,-135.99 218.94,-131.89 213.93,-127.87"/>
<polygon fill="black" stroke="black" points="216.3,-125.29 206.31,-121.76 211.92,-130.74 216.3,-125.29"/>
<text xml:space="preserve" text-anchor="middle" x="181.59" y="-126.22" font-family="Times,serif" font-size="8.00">mediates communication</text>
</g>
<!-- Grammar -->
<g id="node17" class="node">
<title>Grammar</title>
<path fill="none" stroke="black" d="M339.32,-141.66C339.32,-141.66 309.32,-141.66 309.32,-141.66 303.32,-141.66 297.32,-135.66 297.32,-129.66 297.32,-129.66 297.32,-117.66 297.32,-117.66 297.32,-111.66 303.32,-105.66 309.32,-105.66 309.32,-105.66 339.32,-105.66 339.32,-105.66 345.32,-105.66 351.32,-111.66 351.32,-117.66 351.32,-117.66 351.32,-129.66 351.32,-129.66 351.32,-135.66 345.32,-141.66 339.32,-141.66"/>
<text xml:space="preserve" text-anchor="middle" x="324.32" y="-120.36" font-family="Times,serif" font-size="9.00">Grammar</text>
</g>
<!-- LG_anchor&#45;&gt;Grammar -->
<g id="edge12" class="edge">
<title>LG_anchor&#45;&gt;Grammar</title>
<path fill="none" stroke="black" d="M280.61,-142.57C282.58,-141.72 284.57,-140.86 286.56,-140"/>
<polygon fill="black" stroke="black" points="287.9,-143.23 295.69,-136.05 285.12,-136.81 287.9,-143.23"/>
</g>
<!-- Lexicon -->
<g id="node18" class="node">
<title>Lexicon</title>
<path fill="none" stroke="black" d="M278.79,-103.79C278.79,-103.79 248.79,-103.79 248.79,-103.79 242.79,-103.79 236.79,-97.79 236.79,-91.79 236.79,-91.79 236.79,-79.79 236.79,-79.79 236.79,-73.79 242.79,-67.79 248.79,-67.79 248.79,-67.79 278.79,-67.79 278.79,-67.79 284.79,-67.79 290.79,-73.79 290.79,-79.79 290.79,-79.79 290.79,-91.79 290.79,-91.79 290.79,-97.79 284.79,-103.79 278.79,-103.79"/>
<text xml:space="preserve" text-anchor="middle" x="263.79" y="-82.49" font-family="Times,serif" font-size="9.00">Lexicon</text>
</g>
<!-- LG_anchor&#45;&gt;Lexicon -->
<g id="edge13" class="edge">
<title>LG_anchor&#45;&gt;Lexicon</title>
<path fill="none" stroke="black" d="M252.95,-138.05C254.38,-131.12 256.06,-123.04 257.66,-115.32"/>
<polygon fill="black" stroke="black" points="261.08,-116.08 259.68,-105.58 254.22,-114.66 261.08,-116.08"/>
</g>
<!-- Pragmatics -->
<g id="node19" class="node">
<title>Pragmatics</title>
<path fill="none" stroke="black" d="M322.21,-101.68C322.21,-101.68 291.21,-101.68 291.21,-101.68 285.21,-101.68 279.21,-95.68 279.21,-89.68 279.21,-89.68 279.21,-77.68 279.21,-77.68 279.21,-71.68 285.21,-65.68 291.21,-65.68 291.21,-65.68 322.21,-65.68 322.21,-65.68 328.21,-65.68 334.21,-71.68 334.21,-77.68 334.21,-77.68 334.21,-89.68 334.21,-89.68 334.21,-95.68 328.21,-101.68 322.21,-101.68"/>
<text xml:space="preserve" text-anchor="middle" x="306.71" y="-80.38" font-family="Times,serif" font-size="9.00">Pragmatics</text>
</g>
<!-- LG_anchor&#45;&gt;Pragmatics -->
<g id="edge14" class="edge">
<title>LG_anchor&#45;&gt;Pragmatics</title>
<path fill="none" stroke="black" d="M263.11,-138.62C269.69,-130.33 277.7,-120.23 285.05,-110.97"/>
<polygon fill="black" stroke="black" points="287.69,-113.27 291.17,-103.26 282.21,-108.92 287.69,-113.27"/>
</g>
<!-- Science -->
<g id="node21" class="node">
<title>Science</title>
<path fill="none" stroke="black" d="M126.77,-358.72C126.77,-358.72 96.77,-358.72 96.77,-358.72 90.77,-358.72 84.77,-352.72 84.77,-346.72 84.77,-346.72 84.77,-334.72 84.77,-334.72 84.77,-328.72 90.77,-322.72 96.77,-322.72 96.77,-322.72 126.77,-322.72 126.77,-322.72 132.77,-322.72 138.77,-328.72 138.77,-334.72 138.77,-334.72 138.77,-346.72 138.77,-346.72 138.77,-352.72 132.77,-358.72 126.77,-358.72"/>
<text xml:space="preserve" text-anchor="middle" x="111.77" y="-337.42" font-family="Times,serif" font-size="9.00">Science</text>
</g>
<!-- KD_anchor&#45;&gt;Science -->
<g id="edge15" class="edge">
<title>KD_anchor&#45;&gt;Science</title>
<path fill="none" stroke="black" d="M150.35,-287C144.69,-294.88 137.89,-304.36 131.58,-313.14"/>
<polygon fill="black" stroke="black" points="128.88,-310.9 125.89,-321.06 134.57,-314.98 128.88,-310.9"/>
</g>
<!-- Humanities -->
<g id="node22" class="node">
<title>Humanities</title>
<path fill="none" stroke="black" d="M110.01,-321.9C110.01,-321.9 77.51,-321.9 77.51,-321.9 71.51,-321.9 65.51,-315.9 65.51,-309.9 65.51,-309.9 65.51,-297.9 65.51,-297.9 65.51,-291.9 71.51,-285.9 77.51,-285.9 77.51,-285.9 110.01,-285.9 110.01,-285.9 116.01,-285.9 122.01,-291.9 122.01,-297.9 122.01,-297.9 122.01,-309.9 122.01,-309.9 122.01,-315.9 116.01,-321.9 110.01,-321.9"/>
<text xml:space="preserve" text-anchor="middle" x="93.76" y="-300.6" font-family="Times,serif" font-size="9.00">Humanities</text>
</g>
<!-- KD_anchor&#45;&gt;Humanities -->
<g id="edge16" class="edge">
<title>KD_anchor&#45;&gt;Humanities</title>
<path fill="none" stroke="black" d="M132.84,-284.41C132.73,-284.47 132.62,-284.52 132.52,-284.57"/>
<polygon fill="black" stroke="black" points="131.05,-281.4 123.66,-288.99 134.17,-287.66 131.05,-281.4"/>
</g>
<!-- Engineering -->
<g id="node23" class="node">
<title>Engineering</title>
<path fill="none" stroke="black" d="M167.79,-375.21C167.79,-375.21 133.04,-375.21 133.04,-375.21 127.04,-375.21 121.04,-369.21 121.04,-363.21 121.04,-363.21 121.04,-351.21 121.04,-351.21 121.04,-345.21 127.04,-339.21 133.04,-339.21 133.04,-339.21 167.79,-339.21 167.79,-339.21 173.79,-339.21 179.79,-345.21 179.79,-351.21 179.79,-351.21 179.79,-363.21 179.79,-363.21 179.79,-369.21 173.79,-375.21 167.79,-375.21"/>
<text xml:space="preserve" text-anchor="middle" x="150.41" y="-353.91" font-family="Times,serif" font-size="9.00">Engineering</text>
</g>
<!-- KD_anchor&#45;&gt;Engineering -->
<g id="edge17" class="edge">
<title>KD_anchor&#45;&gt;Engineering</title>
<path fill="none" stroke="black" d="M160.41,-287.57C158.75,-299.15 156.56,-314.42 154.65,-327.71"/>
<polygon fill="black" stroke="black" points="151.24,-326.84 153.28,-337.23 158.17,-327.83 151.24,-326.84"/>
</g>
<!-- Mathematics -->
<g id="node24" class="node">
<title>Mathematics</title>
<path fill="none" stroke="black" d="M207.18,-367.73C207.18,-367.73 170.18,-367.73 170.18,-367.73 164.18,-367.73 158.18,-361.73 158.18,-355.73 158.18,-355.73 158.18,-343.73 158.18,-343.73 158.18,-337.73 164.18,-331.73 170.18,-331.73 170.18,-331.73 207.18,-331.73 207.18,-331.73 213.18,-331.73 219.18,-337.73 219.18,-343.73 219.18,-343.73 219.18,-355.73 219.18,-355.73 219.18,-361.73 213.18,-367.73 207.18,-367.73"/>
<text xml:space="preserve" text-anchor="middle" x="188.68" y="-346.43" font-family="Times,serif" font-size="9.00">Mathematics</text>
</g>
<!-- KD_anchor&#45;&gt;Mathematics -->
<g id="edge18" class="edge">
<title>KD_anchor&#45;&gt;Mathematics</title>
<path fill="none" stroke="black" d="M168.85,-287.6C171.94,-297.29 175.82,-309.45 179.32,-320.42"/>
<polygon fill="black" stroke="black" points="175.95,-321.39 182.33,-329.85 182.62,-319.26 175.95,-321.39"/>
</g>
<!-- INF_anchor&#45;&gt;LG_anchor -->
<g id="edge32" class="edge">
<title>INF_anchor&#45;&gt;LG_anchor</title>
<path fill="none" stroke="black" d="M240.98,-232.69C242.42,-219.31 244.39,-200.88 246.04,-185.46"/>
<polygon fill="black" stroke="black" points="249.48,-186.21 247.07,-175.89 242.52,-185.46 249.48,-186.21"/>
<text xml:space="preserve" text-anchor="middle" x="284.39" y="-211.22" font-family="Times,serif" font-size="8.00">supports meaning&#45;making</text>
</g>
<!-- INF_anchor&#45;&gt;KD_anchor -->
<g id="edge31" class="edge">
<title>INF_anchor&#45;&gt;KD_anchor</title>
<path fill="none" stroke="black" d="M212.01,-257.5C211.91,-257.53 211.81,-257.55 211.71,-257.58"/>
<polygon fill="black" stroke="black" points="217.44,-252.59 208.55,-258.34 219.09,-259.39 217.44,-252.59"/>
<text xml:space="preserve" text-anchor="middle" x="244.49" y="-259.69" font-family="Times,serif" font-size="8.00">supports explanation</text>
</g>
<!-- Causality -->
<g id="node26" class="node">
<title>Causality</title>
<path fill="none" stroke="black" d="M330.02,-302.88C330.02,-302.88 300.02,-302.88 300.02,-302.88 294.02,-302.88 288.02,-296.88 288.02,-290.88 288.02,-290.88 288.02,-278.88 288.02,-278.88 288.02,-272.88 294.02,-266.88 300.02,-266.88 300.02,-266.88 330.02,-266.88 330.02,-266.88 336.02,-266.88 342.02,-272.88 342.02,-278.88 342.02,-278.88 342.02,-290.88 342.02,-290.88 342.02,-296.88 336.02,-302.88 330.02,-302.88"/>
<text xml:space="preserve" text-anchor="middle" x="315.02" y="-281.58" font-family="Times,serif" font-size="9.00">Causality</text>
</g>
<!-- INF_anchor&#45;&gt;Causality -->
<g id="edge19" class="edge">
<title>INF_anchor&#45;&gt;Causality</title>
<path fill="none" stroke="black" d="M262.65,-261.51C267.36,-263.61 272.41,-265.87 277.46,-268.12"/>
<polygon fill="black" stroke="black" points="275.74,-271.18 286.3,-272.06 278.59,-264.79 275.74,-271.18"/>
</g>
<!-- Category -->
<g id="node27" class="node">
<title>Category</title>
<path fill="none" stroke="black" d="M316.99,-341.55C316.99,-341.55 273.99,-341.55 273.99,-341.55 267.99,-341.55 261.99,-335.55 261.99,-329.55 261.99,-329.55 261.99,-317.55 261.99,-317.55 261.99,-311.55 267.99,-305.55 273.99,-305.55 273.99,-305.55 316.99,-305.55 316.99,-305.55 322.99,-305.55 328.99,-311.55 328.99,-317.55 328.99,-317.55 328.99,-329.55 328.99,-329.55 328.99,-335.55 322.99,-341.55 316.99,-341.55"/>
<text xml:space="preserve" text-anchor="middle" x="295.49" y="-320.25" font-family="Times,serif" font-size="9.00">Categorization</text>
</g>
<!-- INF_anchor&#45;&gt;Category -->
<g id="edge20" class="edge">
<title>INF_anchor&#45;&gt;Category</title>
<path fill="none" stroke="black" d="M251.83,-267.43C258.44,-275.93 266.68,-286.51 274.21,-296.19"/>
<polygon fill="black" stroke="black" points="271.3,-298.16 280.21,-303.9 276.83,-293.86 271.3,-298.16"/>
</g>
<!-- Analogy -->
<g id="node28" class="node">
<title>Analogy</title>
<path fill="none" stroke="black" d="M269.8,-353.67C269.8,-353.67 239.8,-353.67 239.8,-353.67 233.8,-353.67 227.8,-347.67 227.8,-341.67 227.8,-341.67 227.8,-329.67 227.8,-329.67 227.8,-323.67 233.8,-317.67 239.8,-317.67 239.8,-317.67 269.8,-317.67 269.8,-317.67 275.8,-317.67 281.8,-323.67 281.8,-329.67 281.8,-329.67 281.8,-341.67 281.8,-341.67 281.8,-347.67 275.8,-353.67 269.8,-353.67"/>
<text xml:space="preserve" text-anchor="middle" x="254.8" y="-332.37" font-family="Times,serif" font-size="9.00">Analogy</text>
</g>
<!-- INF_anchor&#45;&gt;Analogy -->
<g id="edge21" class="edge">
<title>INF_anchor&#45;&gt;Analogy</title>
<path fill="none" stroke="black" d="M242.37,-268.93C244.38,-279.75 247,-293.79 249.31,-306.2"/>
<polygon fill="black" stroke="black" points="245.86,-306.76 251.13,-315.95 252.74,-305.48 245.86,-306.76"/>
</g>
</g>
</svg>
