<?xml version="1.0" encoding="UTF-8" standalone="no"?>
<!DOCTYPE svg PUBLIC "-//W3C//DTD SVG 1.1//EN"
 "http://www.w3.org/Graphics/SVG/1.1/DTD/svg11.dtd">
<!-- Generated by graphviz version 14.0.5 (0)
 -->
<!-- Title: IG_AG_System Pages: 1 -->
<svg width="452pt" height="526pt"
 viewBox="0.00 0.00 452.00 526.00" xmlns="http://www.w3.org/2000/svg" xmlns:xlink="http://www.w3.org/1999/xlink">
<g id="graph0" class="graph" transform="scale(1 1) rotate(0) translate(4 522)">
<title>IG_AG_System</title>
<polygon fill="white" stroke="none" points="-4,4 -4,-522 448,-522 448,4 -4,4"/>
<g id="clust1" class="cluster">
<title>cluster_sys1</title>
<polygon fill="#fff0cc" stroke="#fff0cc" points="8,-192 8,-510 226,-510 226,-192 8,-192"/>
<text xml:space="preserve" text-anchor="middle" x="117" y="-492.7" font-family="Times,serif" font-size="14.00">System 1 (intuition / fast response)</text>
</g>
<g id="clust2" class="cluster">
<title>cluster_sys2</title>
<polygon fill="#cce0ff" stroke="#cce0ff" points="234,-119 234,-414.5 436,-414.5 436,-119 234,-119"/>
<text xml:space="preserve" text-anchor="middle" x="335" y="-397.2" font-family="Times,serif" font-size="14.00">System 2 (reasoning / integration)</text>
</g>
<g id="clust3" class="cluster">
<title>cluster_goal</title>
<polygon fill="none" stroke="black" stroke-dasharray="5,2" points="62,-8 62,-84.5 273,-84.5 273,-8 62,-8"/>
<text xml:space="preserve" text-anchor="middle" x="167.5" y="-67.2" font-family="Times,serif" font-size="14.00">Shared purpose: interpersonal uplift</text>
</g>
<!-- IG1 -->
<g id="node1" class="node">
<title>IG1</title>
<path fill="none" stroke="black" d="M206.25,-477.5C206.25,-477.5 131.75,-477.5 131.75,-477.5 125.75,-477.5 119.75,-471.5 119.75,-465.5 119.75,-465.5 119.75,-453.5 119.75,-453.5 119.75,-447.5 125.75,-441.5 131.75,-441.5 131.75,-441.5 206.25,-441.5 206.25,-441.5 212.25,-441.5 218.25,-447.5 218.25,-453.5 218.25,-453.5 218.25,-465.5 218.25,-465.5 218.25,-471.5 212.25,-477.5 206.25,-477.5"/>
<text xml:space="preserve" text-anchor="middle" x="169" y="-455.62" font-family="Times,serif" font-size="10.00">IG: instant reactions</text>
</g>
<!-- IG2 -->
<g id="node2" class="node">
<title>IG2</title>
<path fill="none" stroke="black" d="M204.12,-382C204.12,-382 89.88,-382 89.88,-382 83.88,-382 77.88,-376 77.88,-370 77.88,-370 77.88,-358 77.88,-358 77.88,-352 83.88,-346 89.88,-346 89.88,-346 204.12,-346 204.12,-346 210.12,-346 216.12,-352 216.12,-358 216.12,-358 216.12,-370 216.12,-370 216.12,-376 210.12,-382 204.12,-382"/>
<text xml:space="preserve" text-anchor="middle" x="147" y="-360.12" font-family="Times,serif" font-size="10.00">IG: tolerance of inconsistency</text>
</g>
<!-- IG1&#45;&gt;IG2 -->
<g id="edge1" class="edge">
<title>IG1&#45;&gt;IG2</title>
<path fill="none" stroke="black" d="M164.96,-441.35C161.82,-427.99 157.39,-409.15 153.71,-393.53"/>
<polygon fill="black" stroke="black" points="157.13,-392.76 151.43,-383.83 150.31,-394.37 157.13,-392.76"/>
</g>
<!-- AG1 -->
<g id="node5" class="node">
<title>AG1</title>
<path fill="none" stroke="black" d="M351.5,-382C351.5,-382 254.5,-382 254.5,-382 248.5,-382 242.5,-376 242.5,-370 242.5,-370 242.5,-358 242.5,-358 242.5,-352 248.5,-346 254.5,-346 254.5,-346 351.5,-346 351.5,-346 357.5,-346 363.5,-352 363.5,-358 363.5,-358 363.5,-370 363.5,-370 363.5,-376 357.5,-382 351.5,-382"/>
<text xml:space="preserve" text-anchor="middle" x="303" y="-360.12" font-family="Times,serif" font-size="10.00">AG: context maintenance</text>
</g>
<!-- IG1&#45;&gt;AG1 -->
<!-- IG3 -->
<g id="node3" class="node">
<title>IG3</title>
<path fill="none" stroke="black" d="M183.5,-309C183.5,-309 74.5,-309 74.5,-309 68.5,-309 62.5,-303 62.5,-297 62.5,-297 62.5,-285 62.5,-285 62.5,-279 68.5,-273 74.5,-273 74.5,-273 183.5,-273 183.5,-273 189.5,-273 195.5,-279 195.5,-285 195.5,-285 195.5,-297 195.5,-297 195.5,-303 189.5,-309 183.5,-309"/>
<text xml:space="preserve" text-anchor="middle" x="129" y="-287.12" font-family="Times,serif" font-size="10.00">IG: priority on rhythm / flow</text>
</g>
<!-- IG2&#45;&gt;IG3 -->
<g id="edge2" class="edge">
<title>IG2&#45;&gt;IG3</title>
<path fill="none" stroke="black" d="M142.64,-345.81C140.67,-338.05 138.3,-328.68 136.09,-319.95"/>
<polygon fill="black" stroke="black" points="139.54,-319.33 133.69,-310.5 132.75,-321.05 139.54,-319.33"/>
</g>
<!-- IG4 -->
<g id="node4" class="node">
<title>IG4</title>
<path fill="none" stroke="black" d="M205.62,-236C205.62,-236 28.38,-236 28.38,-236 22.38,-236 16.38,-230 16.38,-224 16.38,-224 16.38,-212 16.38,-212 16.38,-206 22.38,-200 28.38,-200 28.38,-200 205.62,-200 205.62,-200 211.62,-200 217.62,-206 217.62,-212 217.62,-212 217.62,-224 217.62,-224 217.62,-230 211.62,-236 205.62,-236"/>
<text xml:space="preserve" text-anchor="middle" x="117" y="-214.12" font-family="Times,serif" font-size="10.00">IG: temperature control (harmony &gt; meaning)</text>
</g>
<!-- IG3&#45;&gt;IG4 -->
<g id="edge3" class="edge">
<title>IG3&#45;&gt;IG4</title>
<path fill="none" stroke="black" d="M126.1,-272.81C124.8,-265.14 123.24,-255.89 121.77,-247.24"/>
<polygon fill="black" stroke="black" points="125.25,-246.8 120.13,-237.52 118.35,-247.96 125.25,-246.8"/>
</g>
<!-- goal -->
<g id="node9" class="node">
<title>goal</title>
<path fill="none" stroke="black" d="M238.75,-52C238.75,-52 95.25,-52 95.25,-52 89.25,-52 83.25,-46 83.25,-40 83.25,-40 83.25,-28 83.25,-28 83.25,-22 89.25,-16 95.25,-16 95.25,-16 238.75,-16 238.75,-16 244.75,-16 250.75,-22 250.75,-28 250.75,-28 250.75,-40 250.75,-40 250.75,-46 244.75,-52 238.75,-52"/>
<text xml:space="preserve" text-anchor="middle" x="167" y="-30.12" font-family="Times,serif" font-size="10.00">Realization of interpersonal harmony</text>
</g>
<!-- IG4&#45;&gt;goal -->
<g id="edge8" class="edge">
<title>IG4&#45;&gt;goal</title>
<path fill="none" stroke="black" d="M109.61,-199.56C102.25,-179.61 93.26,-146.2 102.5,-119 110.08,-96.67 126.26,-75.63 140.51,-60.2"/>
<polygon fill="black" stroke="black" points="142.72,-62.95 147.12,-53.32 137.67,-58.11 142.72,-62.95"/>
<text xml:space="preserve" text-anchor="middle" x="166.25" y="-139.95" font-family="Times,serif" font-size="14.00">via IG (System 1 style)</text>
</g>
<!-- AG2 -->
<g id="node6" class="node">
<title>AG2</title>
<path fill="none" stroke="black" d="M365.75,-309C365.75,-309 258.25,-309 258.25,-309 252.25,-309 246.25,-303 246.25,-297 246.25,-297 246.25,-285 246.25,-285 246.25,-279 252.25,-273 258.25,-273 258.25,-273 365.75,-273 365.75,-273 371.75,-273 377.75,-279 377.75,-285 377.75,-285 377.75,-297 377.75,-297 377.75,-303 371.75,-309 365.75,-309"/>
<text xml:space="preserve" text-anchor="middle" x="312" y="-287.12" font-family="Times,serif" font-size="10.00">AG: coherence management</text>
</g>
<!-- AG1&#45;&gt;AG2 -->
<g id="edge4" class="edge">
<title>AG1&#45;&gt;AG2</title>
<path fill="none" stroke="black" d="M305.18,-345.81C306.15,-338.14 307.32,-328.89 308.42,-320.24"/>
<polygon fill="black" stroke="black" points="311.87,-320.89 309.65,-310.53 304.92,-320.01 311.87,-320.89"/>
</g>
<!-- AG3 -->
<g id="node7" class="node">
<title>AG3</title>
<path fill="none" stroke="black" d="M378.38,-236C378.38,-236 253.62,-236 253.62,-236 247.62,-236 241.62,-230 241.62,-224 241.62,-224 241.62,-212 241.62,-212 241.62,-206 247.62,-200 253.62,-200 253.62,-200 378.38,-200 378.38,-200 384.38,-200 390.38,-206 390.38,-212 390.38,-212 390.38,-224 390.38,-224 390.38,-230 384.38,-236 378.38,-236"/>
<text xml:space="preserve" text-anchor="middle" x="316" y="-214.12" font-family="Times,serif" font-size="10.00">AG: structuring and explanation</text>
</g>
<!-- AG2&#45;&gt;AG3 -->
<g id="edge5" class="edge">
<title>AG2&#45;&gt;AG3</title>
<path fill="none" stroke="black" d="M312.97,-272.81C313.4,-265.14 313.92,-255.89 314.41,-247.24"/>
<polygon fill="black" stroke="black" points="317.89,-247.72 314.96,-237.54 310.9,-247.33 317.89,-247.72"/>
</g>
<!-- AG4 -->
<g id="node8" class="node">
<title>AG4</title>
<path fill="none" stroke="black" d="M359.62,-163C359.62,-163 260.38,-163 260.38,-163 254.38,-163 248.38,-157 248.38,-151 248.38,-151 248.38,-139 248.38,-139 248.38,-133 254.38,-127 260.38,-127 260.38,-127 359.62,-127 359.62,-127 365.62,-127 371.62,-133 371.62,-139 371.62,-139 371.62,-151 371.62,-151 371.62,-157 365.62,-163 359.62,-163"/>
<text xml:space="preserve" text-anchor="middle" x="310" y="-141.12" font-family="Times,serif" font-size="10.00">AG: adjustment for clarity</text>
</g>
<!-- AG3&#45;&gt;AG4 -->
<g id="edge6" class="edge">
<title>AG3&#45;&gt;AG4</title>
<path fill="none" stroke="black" d="M314.55,-199.81C313.9,-192.14 313.12,-182.89 312.39,-174.24"/>
<polygon fill="black" stroke="black" points="315.9,-174.21 311.57,-164.54 308.92,-174.8 315.9,-174.21"/>
</g>
<!-- AG4&#45;&gt;goal -->
<g id="edge9" class="edge">
<title>AG4&#45;&gt;goal</title>
<path fill="none" stroke="black" d="M287.34,-126.73C263.39,-108.47 225.43,-79.54 198.55,-59.05"/>
<polygon fill="black" stroke="black" points="200.83,-56.39 190.76,-53.11 196.59,-61.95 200.83,-56.39"/>
<text xml:space="preserve" text-anchor="middle" x="329.75" y="-95.7" font-family="Times,serif" font-size="14.00">via AG (System 2 style)</text>
</g>
</g>
</svg>
