<?xml version="1.0" encoding="UTF-8" standalone="no"?>
<!DOCTYPE svg PUBLIC "-//W3C//DTD SVG 1.1//EN"
 "http://www.w3.org/Graphics/SVG/1.1/DTD/svg11.dtd">
<!-- Generated by graphviz version 13.1.2 (0)
 -->
<!-- Title: CognitiveLoadModel Pages: 1 -->
<svg width="788pt" height="534pt"
 viewBox="0.00 0.00 788.00 534.00" xmlns="http://www.w3.org/2000/svg" xmlns:xlink="http://www.w3.org/1999/xlink">
<g id="graph0" class="graph" transform="scale(1 1) rotate(0) translate(4 529.75)">
<title>CognitiveLoadModel</title>
<polygon fill="white" stroke="none" points="-4,4 -4,-529.75 784,-529.75 784,4 -4,4"/>
<text xml:space="preserve" text-anchor="middle" x="390" y="-508.45" font-family="Times,serif" font-size="14.00">Cognitive Load Model: Immediate vs Adjustive Grammar</text>
<text xml:space="preserve" text-anchor="middle" x="390" y="-493.45" font-family="Times,serif" font-size="14.00">(Referenced to Kahneman&#39;s System 1 / System 2)</text>
<g id="clust1" class="cluster">
<title>cluster_IG</title>
<polygon fill="#cde7ff" stroke="#cde7ff" points="8,-76.38 8,-391.88 321,-391.88 321,-76.38 8,-76.38"/>
<text xml:space="preserve" text-anchor="middle" x="164.5" y="-374.58" font-family="Times,serif" font-size="14.00">Immediate Grammar (System 1&#45;like processing)</text>
</g>
<g id="clust2" class="cluster">
<title>cluster_AG</title>
<polygon fill="#ffe7cd" stroke="#ffe7cd" points="459,-76.38 459,-391.88 772,-391.88 772,-76.38 459,-76.38"/>
<text xml:space="preserve" text-anchor="middle" x="615.5" y="-374.58" font-family="Times,serif" font-size="14.00">Adjustive Grammar (System 2&#45;like processing)</text>
</g>
<!-- IG1 -->
<g id="node1" class="node">
<title>IG1</title>
<polygon fill="#ffffff" stroke="black" points="304,-360.88 156,-360.88 156,-324.88 304,-324.88 304,-360.88"/>
<text xml:space="preserve" text-anchor="middle" x="230" y="-344.23" font-family="Times,serif" font-size="12.00">自動的処理</text>
<text xml:space="preserve" text-anchor="middle" x="230" y="-331.48" font-family="Times,serif" font-size="12.00">(automatic processing)</text>
</g>
<!-- IG2 -->
<g id="node2" class="node">
<title>IG2</title>
<polygon fill="#ffffff" stroke="black" points="193,-287.88 51,-287.88 51,-251.88 193,-251.88 193,-287.88"/>
<text xml:space="preserve" text-anchor="middle" x="122" y="-271.23" font-family="Times,serif" font-size="12.00">短い応答・chunk</text>
<text xml:space="preserve" text-anchor="middle" x="122" y="-258.48" font-family="Times,serif" font-size="12.00">(low planning demand)</text>
</g>
<!-- IG1&#45;&gt;IG2 -->
<g id="edge1" class="edge">
<title>IG1&#45;&gt;IG2</title>
<path fill="none" stroke="black" d="M203.58,-324.51C189.85,-315.48 172.87,-304.32 157.96,-294.52"/>
<polygon fill="black" stroke="black" points="160.06,-291.71 149.79,-289.14 156.22,-297.56 160.06,-291.71"/>
</g>
<!-- IG3 -->
<g id="node3" class="node">
<title>IG3</title>
<polygon fill="#ffffff" stroke="black" points="205,-193.38 27,-193.38 27,-157.38 205,-157.38 205,-193.38"/>
<text xml:space="preserve" text-anchor="middle" x="116" y="-176.73" font-family="Times,serif" font-size="12.00">低負荷の認知処理</text>
<text xml:space="preserve" text-anchor="middle" x="116" y="-163.98" font-family="Times,serif" font-size="12.00">(lower working memory load)</text>
</g>
<!-- IG2&#45;&gt;IG3 -->
<g id="edge2" class="edge">
<title>IG2&#45;&gt;IG3</title>
<path fill="none" stroke="black" d="M120.87,-251.48C120.03,-238.43 118.85,-220.28 117.86,-205.09"/>
<polygon fill="black" stroke="black" points="121.36,-204.96 117.22,-195.21 114.38,-205.41 121.36,-204.96"/>
</g>
<!-- IG4 -->
<g id="node4" class="node">
<title>IG4</title>
<polygon fill="#ffffff" stroke="black" points="282,-120.38 134,-120.38 134,-84.38 282,-84.38 282,-120.38"/>
<text xml:space="preserve" text-anchor="middle" x="208" y="-103.73" font-family="Times,serif" font-size="12.00">相互作用を維持</text>
<text xml:space="preserve" text-anchor="middle" x="208" y="-90.98" font-family="Times,serif" font-size="12.00">(interaction&#45;friendly)</text>
</g>
<!-- IG3&#45;&gt;IG4 -->
<g id="edge3" class="edge">
<title>IG3&#45;&gt;IG4</title>
<path fill="none" stroke="black" d="M138.27,-157.19C149.82,-148.27 164.13,-137.23 176.77,-127.48"/>
<polygon fill="black" stroke="black" points="178.64,-130.46 184.42,-121.58 174.36,-124.91 178.64,-130.46"/>
</g>
<!-- AG1 -->
<g id="node5" class="node">
<title>AG1</title>
<polygon fill="#ffffff" stroke="black" points="621,-360.88 467,-360.88 467,-324.88 621,-324.88 621,-360.88"/>
<text xml:space="preserve" text-anchor="middle" x="544" y="-344.23" font-family="Times,serif" font-size="12.00">意識的処理</text>
<text xml:space="preserve" text-anchor="middle" x="544" y="-331.48" font-family="Times,serif" font-size="12.00">(deliberate processing)</text>
</g>
<!-- IG3&#45;&gt;AG1 -->
<g id="edge11" class="edge">
<title>IG3&#45;&gt;AG1</title>
<path fill="none" stroke="black" stroke-dasharray="5,2" d="M205.44,-175.86C284.66,-177.27 392.63,-184.34 425,-211.38 452.25,-234.13 425.81,-260.16 448,-287.88 458.39,-300.85 472.8,-311.24 487.29,-319.31"/>
<polygon fill="black" stroke="black" points="485.46,-322.3 495.95,-323.82 488.7,-316.1 485.46,-322.3"/>
<text xml:space="preserve" text-anchor="middle" x="521.5" y="-270.68" font-family="Times,serif" font-size="11.00">必要に応じて精密化</text>
<text xml:space="preserve" text-anchor="middle" x="521.5" y="-259.43" font-family="Times,serif" font-size="11.00">(when elaboration is needed)</text>
</g>
<!-- End -->
<g id="node10" class="node">
<title>End</title>
<ellipse fill="#e8e8e8" stroke="black" cx="385" cy="-23.69" rx="96.17" ry="23.69"/>
<text xml:space="preserve" text-anchor="middle" x="385" y="-25.04" font-family="Times,serif" font-size="12.00">発話の実現</text>
<text xml:space="preserve" text-anchor="middle" x="385" y="-12.29" font-family="Times,serif" font-size="12.00">(utterance produced)</text>
</g>
<!-- IG4&#45;&gt;End -->
<g id="edge9" class="edge">
<title>IG4&#45;&gt;End</title>
<path fill="none" stroke="black" d="M248.16,-83.97C271.74,-73.76 301.92,-60.68 327.93,-49.41"/>
<polygon fill="black" stroke="black" points="329.25,-52.66 337.03,-45.47 326.47,-46.23 329.25,-52.66"/>
</g>
<!-- AG2 -->
<g id="node6" class="node">
<title>AG2</title>
<polygon fill="#ffffff" stroke="black" points="764,-287.88 604,-287.88 604,-251.88 764,-251.88 764,-287.88"/>
<text xml:space="preserve" text-anchor="middle" x="684" y="-271.23" font-family="Times,serif" font-size="12.00">文の精密構築</text>
<text xml:space="preserve" text-anchor="middle" x="684" y="-258.48" font-family="Times,serif" font-size="12.00">(higher planning demand)</text>
</g>
<!-- AG1&#45;&gt;AG2 -->
<g id="edge4" class="edge">
<title>AG1&#45;&gt;AG2</title>
<path fill="none" stroke="black" d="M578.25,-324.51C596.72,-315.14 619.74,-303.47 639.58,-293.41"/>
<polygon fill="black" stroke="black" points="640.94,-296.64 648.27,-289 637.77,-290.4 640.94,-296.64"/>
</g>
<!-- AG3 -->
<g id="node7" class="node">
<title>AG3</title>
<polygon fill="#ffffff" stroke="black" points="713,-193.38 517,-193.38 517,-157.38 713,-157.38 713,-193.38"/>
<text xml:space="preserve" text-anchor="middle" x="615" y="-176.73" font-family="Times,serif" font-size="12.00">認知的負荷の増大</text>
<text xml:space="preserve" text-anchor="middle" x="615" y="-163.98" font-family="Times,serif" font-size="12.00">(increased working memory use)</text>
</g>
<!-- AG2&#45;&gt;AG3 -->
<g id="edge5" class="edge">
<title>AG2&#45;&gt;AG3</title>
<path fill="none" stroke="black" d="M671.02,-251.48C660.81,-237.78 646.4,-218.47 634.75,-202.86"/>
<polygon fill="black" stroke="black" points="637.61,-200.83 628.83,-194.91 632,-205.02 637.61,-200.83"/>
</g>
<!-- AG4 -->
<g id="node8" class="node">
<title>AG4</title>
<polygon fill="#ffffff" stroke="black" points="603,-120.38 467,-120.38 467,-84.38 603,-84.38 603,-120.38"/>
<text xml:space="preserve" text-anchor="middle" x="535" y="-103.73" font-family="Times,serif" font-size="12.00">応答までの時間延長</text>
<text xml:space="preserve" text-anchor="middle" x="535" y="-90.98" font-family="Times,serif" font-size="12.00">(slower interaction)</text>
</g>
<!-- AG3&#45;&gt;AG4 -->
<g id="edge6" class="edge">
<title>AG3&#45;&gt;AG4</title>
<path fill="none" stroke="black" d="M595.63,-157.19C585.78,-148.45 573.63,-137.66 562.8,-128.05"/>
<polygon fill="black" stroke="black" points="565.4,-125.68 555.6,-121.66 560.75,-130.91 565.4,-125.68"/>
</g>
<!-- AG4&#45;&gt;IG1 -->
<g id="edge12" class="edge">
<title>AG4&#45;&gt;IG1</title>
<path fill="none" stroke="black" stroke-dasharray="5,2" d="M512.85,-120.69C459.24,-162.62 322.35,-269.66 260.8,-317.79"/>
<polygon fill="black" stroke="black" points="258.85,-314.87 253.13,-323.79 263.16,-320.39 258.85,-314.87"/>
<text xml:space="preserve" text-anchor="middle" x="493.68" y="-223.43" font-family="Times,serif" font-size="11.00">対話状況で即時化</text>
<text xml:space="preserve" text-anchor="middle" x="493.68" y="-212.18" font-family="Times,serif" font-size="11.00">(when interaction requires immediacy)</text>
</g>
<!-- AG4&#45;&gt;End -->
<g id="edge10" class="edge">
<title>AG4&#45;&gt;End</title>
<path fill="none" stroke="black" d="M500.96,-83.97C481.8,-74.18 457.49,-61.75 436.08,-50.8"/>
<polygon fill="black" stroke="black" points="437.68,-47.69 427.18,-46.25 434.49,-53.92 437.68,-47.69"/>
</g>
<!-- Start -->
<g id="node9" class="node">
<title>Start</title>
<ellipse fill="#e8e8e8" stroke="black" cx="387" cy="-464.06" rx="83.44" ry="23.69"/>
<text xml:space="preserve" text-anchor="middle" x="387" y="-465.41" font-family="Times,serif" font-size="12.00">発話要求</text>
<text xml:space="preserve" text-anchor="middle" x="387" y="-452.66" font-family="Times,serif" font-size="12.00">(intent to speak)</text>
</g>
<!-- Start&#45;&gt;IG1 -->
<g id="edge7" class="edge">
<title>Start&#45;&gt;IG1</title>
<path fill="none" stroke="black" d="M358.57,-441.48C331.26,-420.75 290.07,-389.48 261.71,-367.95"/>
<polygon fill="black" stroke="black" points="263.91,-365.23 253.83,-361.97 259.68,-370.8 263.91,-365.23"/>
<text xml:space="preserve" text-anchor="middle" x="405.24" y="-411.93" font-family="Times,serif" font-size="11.00">自然な応答場面</text>
<text xml:space="preserve" text-anchor="middle" x="405.24" y="-400.68" font-family="Times,serif" font-size="11.00">(conversational/interactive)</text>
</g>
<!-- Start&#45;&gt;AG1 -->
<g id="edge8" class="edge">
<title>Start&#45;&gt;AG1</title>
<path fill="none" stroke="black" d="M440.95,-445.83C455.43,-439.75 470.52,-431.98 483,-422.38 501.41,-408.22 517.33,-387.25 528.28,-370.54"/>
<polygon fill="black" stroke="black" points="530.94,-372.89 533.32,-362.56 525.02,-369.15 530.94,-372.89"/>
<text xml:space="preserve" text-anchor="middle" x="572.12" y="-411.93" font-family="Times,serif" font-size="11.00">説明・慎重さが必要な場面</text>
<text xml:space="preserve" text-anchor="middle" x="572.12" y="-400.68" font-family="Times,serif" font-size="11.00">(expository/precise)</text>
</g>
</g>
</svg>
