<?xml version="1.0" encoding="UTF-8" standalone="no"?>
<!DOCTYPE svg PUBLIC "-//W3C//DTD SVG 1.1//EN"
 "http://www.w3.org/Graphics/SVG/1.1/DTD/svg11.dtd">
<!-- Generated by graphviz version 14.1.2 (0)
 -->
<!-- Title: pgm_overview Pages: 1 -->
<svg width="313pt" height="203pt"
 viewBox="0.00 0.00 313.00 203.00" xmlns="http://www.w3.org/2000/svg" xmlns:xlink="http://www.w3.org/1999/xlink">
<g id="graph0" class="graph" transform="scale(1 1) rotate(0) translate(4 199)">
<title>pgm_overview</title>
<polygon fill="white" stroke="none" points="-4,4 -4,-199 308.5,-199 308.5,4 -4,4"/>
<!-- A -->
<g id="node1" class="node">
<title>A</title>
<polygon fill="none" stroke="black" points="136,-195 0,-195 0,-154 136,-154 136,-195"/>
<text xml:space="preserve" text-anchor="middle" x="68" y="-177.7" font-family="Times,serif" font-size="14.00">phrase&#45;internal syntax</text>
<text xml:space="preserve" text-anchor="middle" x="68" y="-161.2" font-family="Times,serif" font-size="14.00">(strong syntax)</text>
</g>
<!-- B -->
<g id="node2" class="node">
<title>B</title>
<polygon fill="none" stroke="black" points="135.62,-118 0.38,-118 0.38,-77 135.62,-77 135.62,-118"/>
<text xml:space="preserve" text-anchor="middle" x="68" y="-100.7" font-family="Times,serif" font-size="14.00">phrase chaining</text>
<text xml:space="preserve" text-anchor="middle" x="68" y="-84.2" font-family="Times,serif" font-size="14.00">(stream of utterances)</text>
</g>
<!-- A&#45;&gt;B -->
<g id="edge1" class="edge">
<title>A&#45;&gt;B</title>
<path fill="none" stroke="black" d="M68,-153.79C68,-146.45 68,-137.91 68,-129.78"/>
<polygon fill="black" stroke="black" points="71.5,-129.85 68,-119.85 64.5,-129.85 71.5,-129.85"/>
</g>
<!-- C -->
<g id="node3" class="node">
<title>C</title>
<polygon fill="none" stroke="black" points="229.88,-41 66.12,-41 66.12,0 229.88,0 229.88,-41"/>
<text xml:space="preserve" text-anchor="middle" x="148" y="-23.7" font-family="Times,serif" font-size="14.00">sentence when needed</text>
<text xml:space="preserve" text-anchor="middle" x="148" y="-7.2" font-family="Times,serif" font-size="14.00">(assertion, evaluation, etc.)</text>
</g>
<!-- B&#45;&gt;C -->
<g id="edge2" class="edge">
<title>B&#45;&gt;C</title>
<path fill="none" stroke="black" d="M89.02,-76.79C98.04,-68.34 108.74,-58.3 118.54,-49.12"/>
<polygon fill="black" stroke="black" points="120.84,-51.76 125.74,-42.37 116.05,-46.66 120.84,-51.76"/>
</g>
<!-- D -->
<g id="node4" class="node">
<title>D</title>
<polygon fill="none" stroke="black" points="304.5,-118 153.5,-118 153.5,-77 304.5,-77 304.5,-118"/>
<text xml:space="preserve" text-anchor="middle" x="229" y="-100.7" font-family="Times,serif" font-size="14.00">relations from fact space</text>
<text xml:space="preserve" text-anchor="middle" x="229" y="-84.2" font-family="Times,serif" font-size="14.00">(real&#45;world relations)</text>
</g>
<!-- D&#45;&gt;C -->
<g id="edge3" class="edge">
<title>D&#45;&gt;C</title>
<path fill="none" stroke="black" d="M207.72,-76.79C198.58,-68.34 187.75,-58.3 177.83,-49.12"/>
<polygon fill="black" stroke="black" points="180.25,-46.59 170.53,-42.36 175.49,-51.72 180.25,-46.59"/>
</g>
</g>
</svg>
