<?xml version="1.0" encoding="UTF-8" standalone="no"?>
<!DOCTYPE svg PUBLIC "-//W3C//DTD SVG 1.1//EN"
 "http://www.w3.org/Graphics/SVG/1.1/DTD/svg11.dtd">
<!-- Generated by graphviz version 14.1.2 (0)
 -->
<!-- Title: PGM_LLM Pages: 1 -->
<svg width="980pt" height="124pt"
 viewBox="0.00 0.00 980.00 124.00" xmlns="http://www.w3.org/2000/svg" xmlns:xlink="http://www.w3.org/1999/xlink">
<g id="graph0" class="graph" transform="scale(1 1) rotate(0) translate(4 120)">
<title>PGM_LLM</title>
<polygon fill="white" stroke="none" points="-4,4 -4,-120 976.08,-120 976.08,4 -4,4"/>
<!-- LLM -->
<g id="node1" class="node">
<title>LLM</title>
<ellipse fill="none" stroke="black" cx="69.26" cy="-71" rx="69.26" ry="18"/>
<text xml:space="preserve" text-anchor="middle" x="69.26" y="-65.95" font-family="Times,serif" font-size="14.00">LLM responses</text>
</g>
<!-- TwoStyles -->
<g id="node2" class="node">
<title>TwoStyles</title>
<ellipse fill="none" stroke="black" cx="258.61" cy="-71" rx="83.08" ry="18"/>
<text xml:space="preserve" text-anchor="middle" x="258.61" y="-65.95" font-family="Times,serif" font-size="14.00">two response styles</text>
</g>
<!-- LLM&#45;&gt;TwoStyles -->
<g id="edge1" class="edge">
<title>LLM&#45;&gt;TwoStyles</title>
<path fill="none" stroke="black" d="M138.96,-71C147.08,-71 155.46,-71 163.84,-71"/>
<polygon fill="black" stroke="black" points="163.74,-74.5 173.74,-71 163.74,-67.5 163.74,-74.5"/>
</g>
<!-- FastSlow -->
<g id="node3" class="node">
<title>FastSlow</title>
<ellipse fill="none" stroke="black" cx="483.79" cy="-98" rx="91.27" ry="18"/>
<text xml:space="preserve" text-anchor="middle" x="483.79" y="-92.95" font-family="Times,serif" font-size="14.00">fast / slow processing</text>
</g>
<!-- TwoStyles&#45;&gt;FastSlow -->
<g id="edge2" class="edge">
<title>TwoStyles&#45;&gt;FastSlow</title>
<path fill="none" stroke="black" d="M332.07,-79.77C351.72,-82.14 373.23,-84.75 393.68,-87.22"/>
<polygon fill="black" stroke="black" points="393.07,-90.67 403.42,-88.4 393.91,-83.72 393.07,-90.67"/>
</g>
<!-- PGM -->
<g id="node4" class="node">
<title>PGM</title>
<ellipse fill="none" stroke="black" cx="483.79" cy="-44" rx="105.09" ry="18"/>
<text xml:space="preserve" text-anchor="middle" x="483.79" y="-38.95" font-family="Times,serif" font-size="14.00">Process Grammar Model</text>
</g>
<!-- TwoStyles&#45;&gt;PGM -->
<g id="edge3" class="edge">
<title>TwoStyles&#45;&gt;PGM</title>
<path fill="none" stroke="black" d="M332.07,-62.23C349.07,-60.18 367.45,-57.95 385.33,-55.79"/>
<polygon fill="black" stroke="black" points="385.68,-59.27 395.19,-54.6 384.84,-52.32 385.68,-59.27"/>
</g>
<!-- IG -->
<g id="node5" class="node">
<title>IG</title>
<ellipse fill="none" stroke="black" cx="716.13" cy="-72" rx="90.25" ry="18"/>
<text xml:space="preserve" text-anchor="middle" x="716.13" y="-66.95" font-family="Times,serif" font-size="14.00">Immediate Grammar</text>
</g>
<!-- PGM&#45;&gt;IG -->
<g id="edge4" class="edge">
<title>PGM&#45;&gt;IG</title>
<path fill="none" stroke="black" d="M570.56,-54.43C588.88,-56.65 608.27,-59.01 626.69,-61.25"/>
<polygon fill="black" stroke="black" points="626.17,-64.71 636.52,-62.44 627.02,-57.76 626.17,-64.71"/>
</g>
<!-- AG -->
<g id="node6" class="node">
<title>AG</title>
<ellipse fill="none" stroke="black" cx="716.13" cy="-18" rx="85.64" ry="18"/>
<text xml:space="preserve" text-anchor="middle" x="716.13" y="-12.95" font-family="Times,serif" font-size="14.00">Adjustive Grammar</text>
</g>
<!-- PGM&#45;&gt;AG -->
<g id="edge5" class="edge">
<title>PGM&#45;&gt;AG</title>
<path fill="none" stroke="black" d="M572.53,-34.1C590.85,-32.03 610.15,-29.85 628.43,-27.79"/>
<polygon fill="black" stroke="black" points="628.62,-31.29 638.16,-26.69 627.83,-24.33 628.62,-31.29"/>
</g>
<!-- Time -->
<g id="node7" class="node">
<title>Time</title>
<ellipse fill="none" stroke="black" cx="920.73" cy="-45" rx="51.35" ry="18"/>
<text xml:space="preserve" text-anchor="middle" x="920.73" y="-39.95" font-family="Times,serif" font-size="14.00">time width</text>
</g>
<!-- IG&#45;&gt;Time -->
<g id="edge6" class="edge">
<title>IG&#45;&gt;Time</title>
<path fill="none" stroke="black" d="M792.28,-61.98C815,-58.96 839.6,-55.68 861.08,-52.82"/>
<polygon fill="black" stroke="black" points="861.37,-56.31 870.82,-51.52 860.45,-49.37 861.37,-56.31"/>
<text xml:space="preserve" text-anchor="middle" x="837.88" y="-60.89" font-family="Times,serif" font-size="14.00">short</text>
</g>
<!-- AG&#45;&gt;Time -->
<g id="edge7" class="edge">
<title>AG&#45;&gt;Time</title>
<path fill="none" stroke="black" d="M791.74,-26.76C811.17,-29.16 832.07,-31.83 851.38,-34.5 854.94,-34.99 858.61,-35.51 862.31,-36.05"/>
<polygon fill="black" stroke="black" points="861.53,-39.47 871.93,-37.47 862.55,-32.55 861.53,-39.47"/>
<text xml:space="preserve" text-anchor="middle" x="837.88" y="-37.7" font-family="Times,serif" font-size="14.00">long</text>
</g>
</g>
</svg>
