<?xml version="1.0" encoding="UTF-8" standalone="no"?>
<!DOCTYPE svg PUBLIC "-//W3C//DTD SVG 1.1//EN"
 "http://www.w3.org/Graphics/SVG/1.1/DTD/svg11.dtd">
<!-- Generated by graphviz version 14.1.2 (0)
 -->
<!-- Title: pgm_overview Pages: 1 -->
<svg width="296pt" height="203pt"
 viewBox="0.00 0.00 296.00 203.00" xmlns="http://www.w3.org/2000/svg" xmlns:xlink="http://www.w3.org/1999/xlink">
<g id="graph0" class="graph" transform="scale(1 1) rotate(0) translate(4 199)">
<title>pgm_overview</title>
<polygon fill="white" stroke="none" points="-4,4 -4,-199 291.5,-199 291.5,4 -4,4"/>
<!-- A -->
<g id="node1" class="node">
<title>A</title>
<polygon fill="none" stroke="black" points="136,-195 0,-195 0,-154 136,-154 136,-195"/>
<text xml:space="preserve" text-anchor="middle" x="68" y="-177.7" font-family="Times,serif" font-size="14.00">phrase&#45;internal syntax</text>
<text xml:space="preserve" text-anchor="middle" x="68" y="-161.2" font-family="Times,serif" font-size="14.00">(強いシンタクス)</text>
</g>
<!-- B -->
<g id="node2" class="node">
<title>B</title>
<polygon fill="none" stroke="black" points="118.75,-118 17.25,-118 17.25,-77 118.75,-77 118.75,-118"/>
<text xml:space="preserve" text-anchor="middle" x="68" y="-100.7" font-family="Times,serif" font-size="14.00">phrase chaining</text>
<text xml:space="preserve" text-anchor="middle" x="68" y="-84.2" font-family="Times,serif" font-size="14.00">(発話の流れ)</text>
</g>
<!-- A&#45;&gt;B -->
<g id="edge1" class="edge">
<title>A&#45;&gt;B</title>
<path fill="none" stroke="black" d="M68,-153.79C68,-146.45 68,-137.91 68,-129.78"/>
<polygon fill="black" stroke="black" points="71.5,-129.85 68,-119.85 64.5,-129.85 71.5,-129.85"/>
</g>
<!-- C -->
<g id="node3" class="node">
<title>C</title>
<polygon fill="none" stroke="black" points="208.75,-41 71.25,-41 71.25,0 208.75,0 208.75,-41"/>
<text xml:space="preserve" text-anchor="middle" x="140" y="-23.7" font-family="Times,serif" font-size="14.00">sentence when needed</text>
<text xml:space="preserve" text-anchor="middle" x="140" y="-7.2" font-family="Times,serif" font-size="14.00">(断定・評価など)</text>
</g>
<!-- B&#45;&gt;C -->
<g id="edge2" class="edge">
<title>B&#45;&gt;C</title>
<path fill="none" stroke="black" d="M86.92,-76.79C94.96,-68.42 104.47,-58.51 113.21,-49.4"/>
<polygon fill="black" stroke="black" points="115.51,-52.06 119.91,-42.43 110.46,-47.22 115.51,-52.06"/>
</g>
<!-- D -->
<g id="node4" class="node">
<title>D</title>
<polygon fill="none" stroke="black" points="287.5,-118 136.5,-118 136.5,-77 287.5,-77 287.5,-118"/>
<text xml:space="preserve" text-anchor="middle" x="212" y="-100.7" font-family="Times,serif" font-size="14.00">relations from fact space</text>
<text xml:space="preserve" text-anchor="middle" x="212" y="-84.2" font-family="Times,serif" font-size="14.00">(現実空間の関係)</text>
</g>
<!-- D&#45;&gt;C -->
<g id="edge3" class="edge">
<title>D&#45;&gt;C</title>
<path fill="none" stroke="black" d="M193.08,-76.79C185.04,-68.42 175.53,-58.51 166.79,-49.4"/>
<polygon fill="black" stroke="black" points="169.54,-47.22 160.09,-42.43 164.49,-52.06 169.54,-47.22"/>
</g>
</g>
</svg>
